{"glyphs":{"0":{"ha":619,"x_min":97,"x_max":546,"o":"m 546 229 l 546 229 q 528 140 546 179 q 479 72 510 100 q 408 28 449 43 q 322 14 367 14 l 322 14 q 236 28 276 14 q 165 72 196 43 q 115 140 133 100 q 97 229 97 179 l 97 229 l 97 819 q 115 909 97 869 q 165 977 133 949 q 236 1020 196 1006 q 322 1035 276 1035 l 322 1035 q 408 1020 367 1035 q 479 977 449 1006 q 528 909 510 949 q 546 819 546 869 l 546 819 l 546 229 z m 450 200 l 450 856 q 440 890 450 872 q 413 922 431 908 q 372 945 396 936 q 321 954 349 954 l 321 954 q 268 945 292 954 q 227 922 244 936 q 200 890 210 908 q 190 856 190 872 l 190 856 l 190 200 q 226 133 190 164 q 321 101 263 101 l 321 101 q 372 110 349 101 q 413 133 396 119 q 440 165 431 147 q 450 200 450 182 l 450 200 z "},"1":{"ha":596,"x_min":107,"x_max":549,"o":"m 547 81 l 547 81 q 548 47 547 65 q 532 28 549 28 l 532 28 l 125 28 q 110 43 110 28 q 108 72 110 58 l 108 72 q 108 90 108 81 q 108 108 107 100 q 112 122 108 117 q 125 128 115 128 l 125 128 q 201 126 167 126 l 201 126 q 254 127 231 126 q 278 131 278 128 l 278 131 l 278 836 q 269 842 278 840 q 250 843 261 843 l 250 843 q 221 842 238 843 l 221 842 q 201 842 210 843 q 186 847 193 840 l 186 847 q 177 864 176 854 q 178 885 178 874 l 178 885 l 178 919 l 275 1019 q 303 1035 289 1033 q 338 1035 318 1036 l 338 1035 q 365 1035 350 1033 q 379 1025 379 1036 l 379 1025 l 379 135 q 403 128 379 129 q 456 126 426 126 l 456 126 q 532 129 490 126 l 532 129 q 547 113 547 129 q 547 81 547 96 z "},"2":{"ha":597,"x_min":104,"x_max":549,"o":"m 549 72 l 549 72 q 548 42 549 57 q 532 26 547 26 l 532 26 l 129 26 q 117 33 124 26 q 111 44 111 39 l 111 44 q 108 97 111 69 q 105 153 106 125 q 108 211 104 182 q 124 269 111 240 l 124 269 q 142 310 135 299 q 158 333 149 321 q 183 368 168 346 q 228 440 199 390 q 307 574 258 489 q 429 797 356 658 l 429 797 q 442 878 451 838 q 393 940 433 919 l 393 940 q 349 953 372 951 q 306 948 326 954 q 267 928 285 942 q 239 893 250 914 l 239 893 q 219 897 236 889 q 189 914 203 904 l 189 914 q 169 926 179 921 q 163 939 158 932 l 163 939 q 207 988 175 964 q 281 1025 239 1013 q 372 1034 324 1038 q 464 1000 419 1031 l 464 1000 q 523 937 506 971 q 544 872 540 903 q 542 819 547 842 q 533 789 538 796 l 533 789 q 390 542 447 639 q 298 385 333 444 q 244 297 263 325 q 218 256 226 268 q 208 240 210 243 q 204 229 207 238 l 204 229 q 199 167 197 190 q 203 133 200 144 l 203 133 q 213 117 207 119 l 213 117 l 532 117 q 548 101 547 117 q 549 72 549 86 z "},"3":{"ha":615,"x_min":113,"x_max":556,"o":"m 556 303 l 556 303 q 553 226 556 257 q 547 174 551 196 q 534 135 542 151 q 514 103 526 119 l 514 103 q 442 40 488 65 q 329 14 396 14 l 329 14 q 217 40 263 14 q 144 103 171 67 l 144 103 q 133 119 138 114 q 126 130 129 125 q 121 140 124 135 q 113 158 118 146 l 113 158 q 129 169 122 165 q 142 176 136 174 l 142 176 q 153 182 147 181 l 153 182 q 168 188 160 185 l 168 188 q 185 193 175 190 q 208 199 196 196 l 208 199 q 221 165 210 181 q 249 138 232 150 q 287 120 265 126 q 331 114 308 114 l 331 114 q 376 121 354 114 q 414 140 397 128 q 441 168 431 151 q 451 203 451 185 l 451 203 l 451 388 q 441 422 451 406 q 414 449 431 438 q 376 468 397 461 q 331 475 354 475 l 331 475 l 299 475 q 287 481 290 475 q 283 496 283 488 q 285 515 283 504 q 286 533 286 525 l 286 533 q 285 551 286 542 q 285 567 285 560 q 288 580 285 575 q 299 585 290 585 l 299 585 l 331 585 q 376 592 354 585 q 414 610 397 599 q 441 638 431 622 q 451 672 451 654 l 451 672 l 451 857 q 441 892 451 876 q 414 920 431 908 q 376 939 397 932 q 331 946 354 946 l 331 946 q 253 926 283 946 q 211 869 224 906 l 211 869 q 209 863 210 867 q 207 857 208 860 l 207 857 q 206 853 206 854 l 206 853 q 188 851 204 846 q 156 858 171 856 l 156 858 q 131 862 144 861 q 121 869 118 863 l 121 869 q 133 918 126 901 q 157 957 139 935 l 157 957 q 232 1014 188 993 q 329 1035 276 1035 l 329 1035 q 425 1014 381 1035 q 500 957 469 993 l 500 957 q 526 922 515 939 q 543 883 536 904 q 553 834 550 863 q 556 764 556 806 l 556 764 q 554 688 556 719 q 545 633 553 657 q 523 590 538 610 q 481 550 508 571 l 481 550 q 523 511 508 531 q 545 465 538 492 q 554 399 553 438 q 556 303 556 360 z "},"4":{"ha":601,"x_min":103,"x_max":547,"o":"m 544 218 l 544 218 q 546 203 544 211 q 547 190 547 196 q 544 178 547 183 q 535 172 542 174 l 535 172 q 507 172 519 174 l 507 172 q 487 169 496 171 q 478 161 478 168 l 478 161 l 478 35 q 460 21 478 19 q 426 22 442 22 l 426 22 q 394 22 411 22 q 376 35 376 21 l 376 35 l 376 167 q 366 170 376 169 q 338 172 356 171 q 297 174 319 174 q 251 174 275 174 l 251 174 q 126 172 196 174 l 126 172 q 117 172 121 172 q 108 176 113 172 l 108 176 q 103 185 104 181 q 103 196 103 189 l 103 196 l 103 267 l 286 1022 q 303 1035 289 1036 q 332 1033 318 1033 l 332 1033 q 349 1034 340 1033 q 367 1035 358 1035 q 380 1032 375 1035 q 382 1022 385 1029 l 382 1022 l 203 267 q 290 264 253 265 l 290 264 q 349 264 322 263 q 376 268 376 265 l 376 268 l 376 364 l 415 426 q 429 434 421 435 q 447 433 438 433 l 447 433 q 468 433 458 432 q 478 426 478 435 l 478 426 l 478 267 l 535 267 q 544 262 542 267 q 547 250 547 257 q 546 234 547 243 q 544 218 544 225 z "},"5":{"ha":608,"x_min":103,"x_max":543,"o":"m 542 232 l 542 232 q 522 141 542 182 q 470 72 503 100 q 397 29 438 44 q 311 14 356 14 l 311 14 q 171 64 229 14 q 103 203 113 114 l 103 203 q 117 211 103 206 q 149 224 131 217 l 149 224 q 196 238 169 231 l 196 238 q 203 197 196 219 q 226 153 211 174 q 263 120 242 133 q 314 107 285 107 l 314 107 q 381 120 356 107 q 420 153 406 133 q 440 194 435 172 q 444 235 444 217 l 444 235 l 444 519 q 440 552 444 535 q 422 584 435 569 q 385 609 408 599 q 326 619 363 619 l 326 619 q 276 610 300 618 l 276 610 q 237 588 257 603 q 206 544 217 572 l 206 544 q 183 537 194 536 q 157 538 172 538 l 157 538 q 142 537 150 538 q 126 537 133 536 q 113 540 118 538 q 108 550 108 543 l 108 550 l 108 999 q 108 1017 108 1008 q 117 1031 108 1025 l 117 1031 q 132 1035 124 1035 l 132 1035 l 526 1035 q 542 1017 543 1035 q 542 983 542 999 l 542 983 q 542 966 542 975 q 542 949 543 957 q 538 935 542 940 q 526 929 535 929 l 526 929 q 367 932 438 932 l 367 932 q 308 931 336 932 q 256 929 279 931 q 219 926 233 928 q 206 921 206 924 l 206 921 l 206 715 q 210 705 206 706 q 231 708 215 704 q 275 715 247 711 q 349 719 303 719 l 349 719 q 422 705 388 719 q 483 665 457 690 q 526 608 510 640 q 542 540 542 575 l 542 540 l 542 232 z "},"6":{"ha":618,"x_min":94,"x_max":547,"o":"m 544 1026 l 544 1026 q 539 1020 542 1022 q 533 1014 536 1018 l 533 1014 q 499 968 519 996 l 499 968 q 453 906 481 944 q 388 813 426 868 l 388 813 q 340 742 360 772 q 306 690 319 713 q 285 651 293 668 q 272 622 276 635 l 272 622 q 272 609 269 614 q 282 606 275 604 l 282 606 q 334 606 301 608 q 399 590 367 603 l 399 590 q 448 559 424 581 q 492 503 472 538 q 525 422 513 468 q 538 314 538 375 l 538 314 q 534 216 538 265 q 513 126 531 167 q 460 56 496 85 q 360 17 425 26 l 360 17 q 284 20 329 11 q 197 62 239 29 q 124 155 154 94 q 94 314 94 215 l 94 314 q 109 446 94 381 q 147 573 124 511 q 200 692 169 635 q 261 799 231 749 l 261 799 q 428 1017 335 915 l 428 1017 q 436 1026 431 1021 l 436 1026 q 446 1033 442 1032 q 455 1035 450 1035 q 467 1035 460 1035 q 483 1035 474 1035 l 483 1035 q 506 1035 494 1035 q 527 1034 518 1035 q 542 1031 536 1033 q 544 1026 547 1029 z m 446 324 l 446 324 q 429 417 444 375 l 429 417 q 389 481 417 453 q 310 510 361 510 l 310 510 q 230 478 256 510 q 196 408 204 447 l 196 408 q 190 306 186 363 l 190 306 q 206 206 190 250 l 206 206 q 246 136 218 168 q 325 104 274 104 l 325 104 q 376 113 356 104 q 412 138 397 122 q 434 174 426 154 q 446 214 442 193 l 446 214 q 446 324 454 263 z "},"7":{"ha":608,"x_min":100,"x_max":540,"o":"m 540 929 l 540 929 q 478 778 508 854 l 478 778 q 422 640 451 713 q 369 507 393 567 l 369 507 q 321 342 340 426 q 290 188 301 257 l 290 188 q 271 31 276 107 l 271 31 q 267 19 271 24 l 267 19 q 259 15 264 15 q 249 15 254 15 l 249 15 l 178 15 q 168 19 172 15 l 168 19 q 167 28 167 21 l 167 28 q 188 204 174 115 l 188 204 q 217 369 199 281 q 263 533 235 457 l 263 533 q 315 669 289 604 q 364 788 342 735 l 364 788 q 413 901 389 849 l 413 901 q 415 913 415 907 l 415 913 q 396 924 415 924 l 396 924 l 117 924 q 105 929 108 924 q 101 943 101 935 q 101 961 100 951 q 103 979 103 971 l 103 979 q 101 997 103 988 q 101 1015 100 1007 q 105 1029 101 1024 q 117 1035 108 1035 l 117 1035 l 494 1035 q 515 1034 506 1035 q 532 1026 524 1033 l 532 1026 q 540 1003 540 1017 l 540 1003 l 540 929 z "},"8":{"ha":611,"x_min":106,"x_max":551,"o":"m 551 303 l 551 303 q 549 226 551 257 q 542 174 547 196 q 529 135 538 151 q 510 103 521 119 l 510 103 q 439 40 485 67 q 328 14 393 14 l 328 14 q 218 40 264 14 q 147 103 172 67 l 147 103 q 128 135 136 119 q 115 174 119 151 q 108 226 110 196 q 106 303 106 257 l 106 303 q 108 399 106 360 q 117 465 110 438 q 140 511 124 492 q 182 550 156 531 l 182 550 q 140 590 156 571 q 117 633 124 610 q 108 688 110 657 q 106 764 106 719 l 106 764 q 108 834 106 806 q 118 884 111 863 q 135 922 125 906 q 160 957 146 939 l 160 957 q 234 1014 190 993 q 328 1035 278 1035 l 328 1035 q 423 1014 379 1035 q 497 957 467 993 l 497 957 q 522 922 513 939 q 539 884 532 906 q 549 834 546 863 q 551 764 551 806 l 551 764 q 549 688 551 719 q 540 633 547 657 q 518 590 533 610 q 475 550 503 571 l 475 550 q 518 511 503 531 q 540 465 533 492 q 549 399 547 438 q 551 303 551 360 z m 449 672 l 449 857 q 413 920 449 894 q 329 946 376 946 l 329 946 q 247 920 283 946 q 211 857 211 894 l 211 857 l 211 672 q 221 638 211 654 q 247 610 231 622 q 285 592 264 599 q 329 585 307 585 l 329 585 q 374 592 353 585 q 413 610 396 599 q 439 638 429 622 q 449 672 449 654 l 449 672 z m 449 203 l 449 388 q 439 422 449 406 q 413 449 429 438 q 374 468 396 461 q 329 475 353 475 l 329 475 q 285 468 307 475 q 247 449 264 461 q 221 422 231 438 q 211 388 211 406 l 211 388 l 211 203 q 247 140 211 165 q 329 114 283 114 l 329 114 q 413 140 376 114 q 449 203 449 165 l 449 203 z "},"9":{"ha":601,"x_min":106,"x_max":551,"o":"m 551 732 l 551 732 q 537 599 551 665 q 499 469 522 532 q 447 350 476 407 q 385 243 417 293 l 385 243 q 217 24 311 126 l 217 24 q 208 17 211 18 l 208 17 q 197 14 204 14 l 197 14 l 117 14 q 106 18 106 14 l 106 18 q 111 28 106 21 l 111 28 q 146 75 125 47 l 146 75 q 192 137 164 99 q 257 229 219 175 l 257 229 q 306 300 286 269 q 338 353 325 331 q 360 393 351 376 q 372 422 368 410 l 372 422 q 372 435 375 431 q 363 439 369 440 l 363 439 q 311 438 344 436 q 246 454 278 440 l 246 454 q 196 485 221 464 q 151 542 171 507 q 118 624 131 576 q 106 732 106 672 l 106 732 q 109 831 106 782 q 130 922 113 881 q 183 992 147 963 q 285 1032 219 1022 l 285 1032 q 361 1028 315 1038 q 449 987 407 1019 q 522 893 492 954 q 551 732 551 832 z m 456 740 l 456 740 q 440 843 456 797 l 440 843 q 400 913 428 882 q 319 944 372 944 l 319 944 q 269 935 290 944 q 233 910 247 925 q 210 874 218 894 q 199 833 203 854 l 199 833 q 199 722 190 785 l 199 722 q 215 629 200 671 l 215 629 q 256 564 228 593 q 335 535 283 535 l 335 535 q 382 544 363 535 q 415 567 401 553 q 438 600 429 582 q 450 638 446 618 l 450 638 q 456 740 461 683 z "}," ":{"ha":347,"x_min":null,"x_max":null,"o":""},"$":{"ha":628,"x_min":135,"x_max":574,"o":"m 574 351 l 574 351 q 558 274 574 307 q 520 217 543 240 q 469 178 497 193 q 415 156 442 163 l 415 156 l 415 39 q 399 27 415 25 q 367 29 382 29 l 367 29 q 334 27 351 29 q 317 39 317 25 l 317 39 l 317 153 q 222 186 264 160 q 156 261 181 213 l 156 261 q 145 282 149 272 q 138 303 142 292 l 138 303 q 141 319 135 314 q 157 325 147 325 l 157 325 l 228 326 q 245 324 236 326 q 254 311 254 321 l 254 311 q 267 291 258 303 q 290 268 276 279 q 323 249 304 257 q 367 242 342 242 l 367 242 q 406 251 388 242 q 439 274 425 260 q 461 307 453 289 q 469 343 469 325 l 469 343 q 453 400 469 372 q 413 455 436 428 q 365 507 390 482 q 322 554 340 532 l 322 554 q 258 628 292 593 q 196 704 224 664 l 196 704 q 184 733 192 713 q 176 772 176 753 l 176 772 q 183 820 176 796 q 208 868 189 844 l 208 868 q 313 932 251 918 l 313 932 l 313 1021 q 329 1035 313 1036 q 363 1035 346 1035 l 363 1035 q 378 1035 369 1035 q 394 1035 388 1036 q 406 1031 401 1035 q 411 1021 411 1028 l 411 1021 l 411 931 q 449 917 429 926 q 487 894 469 908 q 516 858 504 879 q 529 804 528 836 l 529 804 q 528 790 532 797 q 518 783 525 783 l 518 783 l 513 783 l 450 783 q 435 799 438 783 l 435 799 q 410 837 426 826 q 363 847 393 847 l 363 847 q 303 826 325 847 q 282 778 282 804 l 282 778 q 294 743 282 763 q 328 697 307 724 l 328 697 q 421 582 375 639 q 515 468 467 525 l 515 468 q 556 412 539 440 q 574 351 574 383 z "},"%":{"ha":618,"x_min":60,"x_max":551,"o":"m 161 797 l 161 797 q 144 785 161 783 q 111 786 126 786 l 111 786 q 94 785 103 786 q 77 785 85 785 q 65 788 69 785 q 60 797 60 790 l 60 797 l 60 994 q 78 1009 60 1010 q 111 1008 96 1008 l 111 1008 q 127 1009 118 1008 q 144 1009 136 1010 q 156 1005 151 1008 q 161 994 161 1001 l 161 994 l 161 797 z m 488 999 l 193 24 q 173 16 189 10 q 142 26 157 22 l 142 26 q 126 31 135 29 q 110 34 117 32 q 99 40 103 36 q 96 50 94 43 l 96 50 l 390 1025 q 411 1032 394 1039 q 442 1021 428 1025 l 442 1021 q 458 1018 449 1019 q 474 1015 467 1017 q 485 1009 481 1013 q 488 999 490 1006 l 488 999 z m 551 57 l 551 57 q 534 44 551 43 q 501 46 517 46 l 501 46 q 484 45 493 46 q 467 44 475 44 q 455 47 460 44 q 450 57 450 50 l 450 57 l 450 253 q 468 267 450 268 q 501 267 486 267 l 501 267 q 517 267 508 267 q 534 267 526 268 q 547 263 542 267 q 551 253 551 260 l 551 253 l 551 57 z "},"&":{"ha":656,"x_min":49,"x_max":593,"o":"m 589 101 l 589 101 q 592 90 593 96 q 585 79 590 85 q 574 69 581 74 q 563 58 568 64 l 563 58 q 553 46 558 53 q 541 34 547 39 q 529 27 535 29 q 519 31 524 25 l 519 31 q 499 59 510 44 q 479 88 489 74 l 479 88 q 458 118 468 103 l 458 118 q 373 52 422 78 q 257 26 324 26 l 257 26 q 197 38 232 26 q 128 77 161 50 q 72 148 94 104 q 49 256 49 192 l 49 256 q 64 316 49 281 q 102 391 79 351 q 151 470 125 431 q 201 543 178 510 l 201 543 q 198 550 199 546 q 196 557 197 554 l 196 557 q 118 769 133 690 q 108 888 103 849 l 108 888 q 131 953 114 924 q 172 1004 147 983 q 226 1037 196 1025 q 290 1049 257 1049 l 290 1049 q 374 1028 331 1049 q 444 971 417 1007 l 444 971 q 469 919 463 947 q 475 864 475 890 l 475 864 q 468 822 475 844 q 456 790 461 799 l 456 790 q 434 753 442 767 q 415 722 426 740 q 384 673 404 704 q 324 579 364 642 l 324 579 q 315 567 319 572 q 307 556 311 563 l 307 556 q 377 431 339 494 q 453 307 415 367 l 453 307 q 474 381 467 349 q 485 421 481 414 l 485 421 q 486 426 488 425 q 488 429 485 426 l 488 429 q 501 432 492 432 l 501 432 l 578 432 q 586 429 581 432 l 586 429 q 589 424 589 426 q 588 418 589 422 l 588 418 q 581 389 586 410 q 568 339 576 368 q 547 276 560 310 q 517 207 535 242 l 517 207 l 542 169 q 565 135 553 154 q 589 101 578 117 z m 385 871 l 385 871 q 359 937 385 908 q 289 965 333 965 l 289 965 q 250 954 265 965 q 225 928 235 943 q 211 897 215 913 q 204 869 207 881 l 204 869 q 205 822 203 844 q 215 774 207 800 q 235 717 222 749 q 267 642 247 685 l 267 642 q 335 751 311 714 q 371 808 360 789 q 383 839 382 828 q 385 871 385 850 z m 403 200 l 403 200 q 321 328 364 260 q 242 464 278 397 l 242 464 q 167 349 199 404 q 136 244 136 294 l 136 244 q 146 197 136 221 q 172 155 156 174 q 211 124 189 136 q 258 113 233 113 l 258 113 q 342 138 307 113 q 403 200 378 164 z "},"'":{"ha":300,"x_min":96,"x_max":211,"o":"m 210 989 l 192 808 q 178 797 190 797 q 154 797 165 797 l 154 797 q 130 797 143 797 q 114 808 117 797 l 114 808 l 97 985 q 116 1002 96 1000 q 154 1004 136 1004 l 154 1004 q 173 1005 163 1004 q 192 1005 183 1006 q 206 1001 200 1004 q 210 989 211 997 l 210 989 z "},"(":{"ha":339,"x_min":86,"x_max":281,"o":"m 278 1004 l 278 1004 q 224 827 243 907 q 194 690 206 747 l 194 690 q 179 572 182 624 l 179 572 q 189 432 179 510 l 189 432 q 215 272 197 365 q 268 60 232 178 l 268 60 q 257 44 272 47 q 229 36 242 42 l 229 36 q 200 26 215 32 q 181 32 185 19 l 181 32 q 124 256 143 157 q 96 426 104 356 l 96 426 q 88 575 86 510 l 88 575 q 104 700 92 629 l 104 700 q 135 844 115 761 q 190 1032 154 928 l 190 1032 q 208 1038 193 1044 q 236 1026 224 1031 l 236 1026 q 265 1021 250 1024 q 278 1004 281 1018 z "},")":{"ha":342,"x_min":85,"x_max":281,"o":"m 281 568 l 281 568 q 271 419 281 504 l 271 419 q 243 247 263 347 q 185 19 224 146 l 185 19 q 166 15 182 8 q 138 25 150 21 l 138 25 q 108 33 124 29 q 97 49 93 36 l 97 49 q 152 262 133 167 q 178 425 171 357 l 178 425 q 186 567 186 504 l 186 567 q 172 686 183 619 l 172 686 q 143 824 163 744 q 88 1003 124 904 l 88 1003 q 101 1019 85 1017 q 129 1026 117 1022 l 129 1026 q 158 1036 143 1029 q 176 1031 174 1043 l 176 1031 q 233 842 213 926 q 265 696 254 757 l 265 696 q 281 568 278 625 z "},"*":{"ha":665,"x_min":149,"x_max":601,"o":"m 599 817 l 599 817 q 580 792 597 799 q 542 783 563 786 q 501 777 521 781 q 472 760 481 774 l 472 760 q 474 727 464 746 q 495 688 485 708 q 508 651 506 668 q 488 622 510 633 l 488 622 q 452 624 465 613 q 428 654 439 636 q 406 689 418 672 q 375 704 394 706 l 375 704 q 342 686 356 703 q 317 652 329 669 q 293 624 306 635 q 263 622 281 613 l 263 622 q 247 648 244 631 q 260 685 250 665 q 277 726 269 706 q 278 760 285 746 l 278 760 q 251 778 271 775 q 208 785 231 782 q 169 793 186 788 q 150 817 151 799 l 150 817 q 165 841 149 835 q 203 851 181 847 q 247 858 225 854 q 278 872 268 861 l 278 872 q 281 903 288 883 q 266 944 275 924 q 253 983 257 965 q 263 1010 249 1001 l 263 1010 q 290 1007 276 1018 q 316 978 303 996 q 344 945 329 961 q 375 928 358 929 l 375 928 q 406 944 392 928 q 434 978 421 960 q 460 1008 447 996 q 488 1010 474 1019 l 488 1010 q 499 983 503 1001 q 488 945 496 965 q 474 906 481 925 q 472 872 467 886 l 472 872 q 500 855 479 858 q 544 849 521 851 q 584 842 567 847 q 599 817 601 836 z "},"+":{"ha":557,"x_min":165,"x_max":479,"o":"m 478 518 l 478 518 q 477 489 476 504 q 464 474 478 474 l 464 474 l 367 474 l 367 358 q 350 344 367 344 q 318 344 333 344 l 318 344 q 285 344 303 344 q 268 358 268 344 l 268 358 l 268 474 l 183 474 q 166 490 167 474 q 165 522 165 507 l 165 522 q 166 553 165 536 q 183 569 167 569 l 183 569 l 268 569 l 268 671 q 274 682 268 679 q 287 685 279 685 q 303 685 294 686 q 321 685 313 685 l 321 685 q 351 684 335 683 q 367 671 367 685 l 367 671 l 367 569 l 464 569 q 478 551 479 569 q 478 518 478 533 z "},",":{"ha":275,"x_min":97,"x_max":199,"o":"m 197 233 l 197 233 q 198 161 197 197 q 196 89 199 125 l 196 89 q 189 69 194 81 l 189 69 q 174 49 183 60 q 144 25 164 38 l 144 25 q 135 20 142 21 q 125 24 129 19 l 125 24 l 111 35 q 110 53 100 43 l 110 53 q 133 69 125 61 q 144 85 140 78 l 144 85 q 150 99 150 92 l 150 99 q 150 132 153 113 l 150 132 l 147 132 q 131 131 140 132 q 115 131 122 131 q 102 133 107 131 q 97 143 97 136 l 97 143 l 97 233 q 113 247 97 247 q 143 247 129 247 l 143 247 q 160 248 151 247 q 178 248 169 249 q 192 244 186 247 q 197 233 197 242 z "},"-":{"ha":549,"x_min":169,"x_max":483,"o":"m 481 510 l 481 510 q 481 481 481 496 q 467 467 481 467 l 467 467 l 186 467 q 170 483 171 467 q 169 514 169 499 l 169 514 q 170 544 169 528 q 186 561 171 561 l 186 561 l 467 561 q 483 543 483 561 q 481 510 482 525 z "},".":{"ha":286,"x_min":100,"x_max":200,"o":"m 200 44 l 200 44 q 183 32 200 31 q 150 33 165 33 l 150 33 q 134 33 143 33 q 117 32 125 32 q 105 35 110 32 q 100 44 100 38 l 100 44 l 100 136 q 105 147 100 143 q 117 151 110 150 q 134 151 125 151 q 150 150 143 150 l 150 150 q 166 151 157 150 q 183 151 175 151 q 195 147 190 150 q 200 136 200 143 l 200 136 l 200 44 z "},"/":{"ha":588,"x_min":121,"x_max":517,"o":"m 514 999 l 219 24 q 199 16 215 10 q 167 26 182 22 l 167 26 q 151 31 160 29 q 135 34 143 32 q 124 40 128 36 q 122 50 121 43 l 122 50 l 417 1025 q 424 1033 419 1032 q 437 1031 429 1033 q 452 1026 444 1029 q 467 1021 460 1024 l 467 1021 q 483 1018 474 1019 q 499 1015 492 1017 q 512 1009 507 1013 q 514 999 517 1006 l 514 999 z "},":":{"ha":272,"x_min":99,"x_max":199,"o":"m 199 642 l 199 642 q 194 633 199 635 q 181 631 189 631 q 165 631 174 631 q 149 632 156 632 l 149 632 q 133 631 142 632 q 116 631 124 631 q 103 633 108 631 q 99 642 99 635 l 99 642 l 99 735 q 116 749 99 749 q 149 749 133 749 l 149 749 q 181 749 164 749 q 199 735 199 749 l 199 735 l 199 642 z m 199 39 l 199 39 q 181 26 199 25 q 149 28 164 28 l 149 28 q 133 27 142 28 q 116 26 124 26 q 103 29 108 26 q 99 39 99 32 l 99 39 l 99 131 q 103 141 99 138 q 116 145 108 144 q 133 145 124 146 q 149 144 142 144 l 149 144 q 165 145 156 144 q 181 145 174 146 q 194 141 189 144 q 199 131 199 138 l 199 131 l 199 39 z "},";":{"ha":269,"x_min":99,"x_max":199,"o":"m 197 646 l 197 646 q 181 633 197 632 q 149 635 164 635 l 149 635 q 116 633 133 635 q 99 646 99 632 l 99 646 l 99 736 q 116 751 99 751 q 149 750 133 750 l 149 750 q 165 751 156 750 q 181 751 174 751 q 192 747 188 750 q 197 736 197 743 l 197 736 l 197 646 z m 197 226 l 197 226 q 198 154 197 190 q 196 82 199 118 l 196 82 q 189 63 194 72 l 189 63 q 174 43 183 54 q 144 19 164 32 l 144 19 q 135 15 142 15 q 125 18 129 14 l 125 18 l 113 28 q 111 47 103 39 l 111 47 q 134 63 126 56 q 146 78 142 71 l 146 78 q 151 92 151 85 l 151 92 q 151 125 154 107 l 151 125 l 149 125 q 116 124 133 125 q 99 136 99 122 l 99 136 l 99 226 q 114 240 99 240 q 143 240 129 239 l 143 240 q 178 241 160 240 q 197 226 197 242 z "},"<":{"ha":157,"x_min":null,"x_max":null,"o":""},"=":{"ha":563,"x_min":168,"x_max":481,"o":"m 479 586 l 479 586 q 479 558 479 574 q 465 543 479 543 l 465 543 l 185 543 q 169 559 169 543 q 168 589 168 575 l 168 589 q 169 620 168 604 q 185 636 169 636 l 185 636 l 465 636 q 481 619 481 636 q 479 586 481 601 z m 479 414 l 479 414 q 479 386 479 401 q 465 371 479 371 l 465 371 l 185 371 q 169 387 169 371 q 168 417 168 403 l 168 417 q 169 449 168 432 q 185 465 169 465 l 185 465 l 465 465 q 481 447 481 465 q 479 414 481 429 z "},">":{"ha":157,"x_min":null,"x_max":null,"o":""},"?":{"ha":610,"x_min":96,"x_max":540,"o":"m 539 813 l 539 813 q 520 735 540 782 q 472 638 500 688 q 413 542 443 588 q 364 467 383 496 l 364 467 q 362 456 363 460 q 361 447 361 451 l 361 447 l 361 439 l 361 203 q 344 190 361 189 q 311 192 326 192 l 311 192 q 278 190 296 192 q 261 203 261 189 l 261 203 l 261 457 q 265 477 261 468 q 272 489 269 486 l 272 489 q 334 581 301 538 q 392 666 367 625 q 435 745 418 707 q 450 821 451 783 l 450 821 q 438 867 449 844 q 411 908 428 890 q 372 938 394 926 q 325 947 350 949 l 325 947 q 276 935 297 946 q 239 910 254 925 q 215 881 224 896 q 201 857 206 865 l 201 857 q 201 846 199 851 q 199 835 203 840 l 199 835 q 185 828 193 828 l 185 828 l 110 825 q 100 832 103 825 l 100 832 q 97 845 96 839 q 99 857 97 851 l 99 857 q 113 901 103 872 q 148 959 124 931 q 215 1010 172 988 q 324 1035 257 1032 l 324 1035 q 384 1024 349 1035 q 453 988 419 1014 q 513 919 488 961 q 539 813 538 876 z m 361 26 l 361 26 q 344 14 361 13 q 311 15 326 15 l 311 15 q 295 15 304 15 q 278 14 286 14 q 266 17 271 14 q 261 26 261 19 l 261 26 l 261 118 q 266 128 261 125 q 278 133 271 132 q 295 133 286 133 q 311 132 304 132 l 311 132 q 344 133 326 132 q 361 118 361 133 l 361 118 l 361 26 z "},"@":{"ha":593,"x_min":67,"x_max":531,"o":"m 531 149 l 531 149 q 516 76 529 103 q 475 37 503 50 q 403 20 447 24 q 296 17 360 17 l 296 17 q 190 19 233 17 q 119 40 146 22 q 79 95 92 57 q 67 204 67 133 l 67 204 l 67 853 q 89 960 67 924 q 145 1014 111 997 q 222 1033 179 1031 q 304 1035 264 1035 l 304 1035 q 437 1022 383 1035 q 494 981 490 1010 l 494 981 q 496 974 496 979 l 496 974 l 526 254 q 519 242 526 244 q 507 238 511 239 l 507 238 l 486 238 q 461 236 475 236 q 446 251 447 236 l 446 251 l 436 424 l 342 424 l 289 253 q 269 238 283 238 q 244 238 256 238 l 244 238 q 220 239 235 238 q 210 254 206 240 l 210 254 l 406 929 q 391 941 403 936 q 363 949 379 946 q 328 953 346 951 q 296 954 310 954 l 296 954 q 253 951 276 954 q 209 940 229 947 q 175 919 189 932 q 161 890 161 907 l 161 890 l 161 172 q 165 143 161 156 q 183 122 169 131 q 222 108 196 113 q 294 104 249 104 l 294 104 q 366 103 340 104 q 405 106 392 103 q 422 116 418 108 q 428 140 426 124 l 428 140 q 429 156 428 147 l 429 156 q 431 172 431 163 q 432 194 431 182 l 432 194 q 449 208 433 208 q 479 210 464 208 l 479 210 q 508 211 493 210 q 526 197 524 213 l 526 197 q 528 177 528 186 q 529 161 528 168 l 529 161 q 531 149 531 154 z m 436 506 l 431 742 l 429 742 l 360 506 l 436 506 z "},"A":{"ha":606,"x_min":113,"x_max":543,"o":"m 542 33 l 542 33 q 539 25 543 28 q 528 22 535 22 q 513 21 521 21 q 499 21 506 21 l 499 21 q 467 19 483 19 q 449 33 451 19 l 449 33 l 404 258 q 382 276 401 276 l 382 276 l 271 276 q 257 271 264 276 q 249 258 250 265 l 249 258 l 211 53 q 203 37 208 44 q 190 26 197 29 l 190 26 q 168 21 176 21 l 168 21 l 156 21 q 128 22 143 22 q 114 33 113 21 l 114 33 l 279 1006 q 287 1022 281 1014 q 300 1032 293 1029 l 300 1032 q 314 1035 308 1035 l 314 1035 l 324 1035 q 354 1037 339 1035 q 372 1025 369 1039 l 372 1025 l 542 33 z m 389 389 l 340 696 q 328 714 338 714 l 328 714 q 315 696 318 714 l 315 696 l 264 389 q 279 371 261 371 l 279 371 l 372 371 q 389 389 392 371 l 389 389 z "},"B":{"ha":613,"x_min":103,"x_max":554,"o":"m 554 271 l 554 271 q 552 197 554 225 q 545 147 550 168 q 530 110 540 126 q 503 75 519 94 l 503 75 q 424 24 468 35 q 326 14 381 14 l 326 14 l 133 14 q 103 35 103 18 l 103 35 l 103 104 q 133 125 103 122 l 133 125 l 133 924 q 103 944 103 926 l 103 944 l 103 1013 q 118 1031 103 1025 l 118 1031 q 133 1035 125 1033 l 133 1035 l 292 1035 q 357 1030 318 1035 q 431 1001 396 1025 q 492 924 467 976 q 518 778 518 872 l 518 778 q 511 667 518 710 q 481 583 504 625 l 481 583 q 464 551 472 565 q 443 525 456 536 l 443 525 q 457 519 447 521 q 479 513 467 518 q 505 494 492 507 q 529 455 518 482 q 547 384 540 428 q 554 271 554 340 z m 425 775 l 425 775 q 424 847 425 817 q 412 899 422 878 q 378 930 401 919 q 314 940 356 940 l 314 940 l 219 940 l 219 581 l 308 581 q 375 594 351 581 q 410 634 399 608 q 423 696 421 660 q 425 775 425 732 z m 464 274 l 464 274 q 462 353 464 318 q 447 415 460 389 q 405 454 433 440 q 325 468 376 468 l 325 468 l 219 468 l 219 108 l 333 108 q 408 119 382 108 q 447 150 435 129 q 462 201 460 171 q 464 274 464 232 z "},"C":{"ha":606,"x_min":94,"x_max":546,"o":"m 546 240 l 546 240 q 530 149 546 190 q 485 77 514 107 q 414 31 456 47 q 319 14 372 14 l 319 14 q 234 28 275 14 q 162 72 193 43 q 113 140 131 100 q 94 229 94 179 l 94 229 l 94 819 q 113 909 94 869 q 162 977 131 949 q 234 1020 193 1006 q 319 1035 275 1035 l 319 1035 q 406 1019 365 1035 q 478 976 447 1004 q 528 909 510 949 q 546 819 546 869 l 546 819 l 546 810 q 529 797 544 797 q 500 797 514 797 l 500 797 q 470 797 485 797 q 456 810 456 797 l 456 810 q 438 882 453 850 l 438 882 q 397 932 424 910 q 318 954 369 954 l 318 954 q 266 946 290 954 q 224 923 242 938 q 197 890 207 908 q 188 856 188 872 l 188 856 l 188 200 q 224 133 188 164 q 318 101 261 103 l 318 101 q 391 123 365 101 q 429 172 417 144 l 429 172 q 449 243 444 204 l 449 243 q 467 257 450 258 q 501 256 485 256 l 501 256 q 530 256 514 256 q 546 243 546 257 l 546 243 l 546 240 z "},"D":{"ha":610,"x_min":104,"x_max":553,"o":"m 553 293 l 553 293 q 491 82 553 150 q 315 14 429 14 l 315 14 l 143 14 q 135 16 142 14 q 122 22 129 18 q 110 29 115 25 q 104 39 104 33 l 104 39 l 104 101 q 139 125 104 121 l 139 125 l 139 924 q 104 947 104 928 l 104 947 l 104 1011 q 120 1029 104 1022 q 157 1035 136 1036 l 157 1035 l 326 1035 q 494 965 436 1035 q 553 771 553 894 l 553 771 l 553 293 z m 465 260 l 465 796 q 432 899 465 863 q 310 935 399 935 l 310 935 l 217 935 l 217 121 l 310 121 q 429 154 393 121 q 465 260 465 188 l 465 260 z "},"E":{"ha":617,"x_min":86,"x_max":553,"o":"m 551 67 l 551 67 q 551 33 551 51 q 535 15 551 14 l 535 15 l 103 17 q 89 19 93 17 l 89 19 q 86 26 86 22 q 86 33 86 29 l 86 33 l 88 1014 q 97 1029 88 1022 l 97 1029 q 108 1034 103 1033 q 121 1035 114 1035 l 121 1035 l 539 1035 q 549 1030 546 1035 q 552 1018 551 1025 q 552 1003 553 1011 q 551 988 551 994 l 551 988 q 552 969 551 979 q 552 951 553 960 q 548 936 551 942 q 535 931 544 931 l 535 931 l 196 932 l 196 581 l 378 581 q 390 575 386 581 q 394 562 393 569 q 393 545 394 554 q 392 528 392 536 l 392 528 q 394 494 393 513 q 379 476 394 476 l 379 476 l 200 476 l 199 119 l 536 118 q 552 101 553 118 q 551 67 551 83 z "},"F":{"ha":601,"x_min":97,"x_max":543,"o":"m 539 983 l 539 983 q 542 948 540 967 q 526 929 543 929 l 526 929 l 193 929 l 193 579 l 331 579 q 343 563 344 579 q 342 533 342 547 l 342 533 q 344 515 342 525 q 346 496 346 504 q 342 482 346 488 q 329 476 339 476 l 329 476 l 194 476 l 193 28 q 175 13 193 13 q 140 15 157 14 l 140 15 q 113 14 128 15 q 97 26 97 13 l 97 26 l 97 1022 q 100 1032 97 1029 l 100 1032 q 110 1035 103 1035 l 110 1035 l 526 1035 q 540 1017 542 1035 q 539 983 539 999 z "},"G":{"ha":628,"x_min":121,"x_max":563,"o":"m 558 240 l 558 240 q 543 149 558 190 q 499 77 528 107 q 430 31 471 47 q 339 14 389 14 l 339 14 q 256 28 296 14 q 187 72 217 43 q 139 140 157 100 q 121 229 121 179 l 121 229 l 121 819 q 139 909 121 869 q 187 977 157 949 q 256 1020 217 1006 q 339 1035 296 1035 l 339 1035 q 424 1019 383 1035 q 497 976 465 1004 q 545 909 528 949 q 558 819 563 869 l 558 819 l 557 811 q 542 801 554 800 q 519 800 531 801 l 519 800 q 488 798 504 799 q 471 811 471 797 l 471 811 q 456 889 471 856 l 456 889 q 416 939 443 917 q 338 954 389 961 l 338 954 q 287 945 310 954 q 247 922 264 936 q 221 890 231 908 q 211 856 211 872 l 211 856 l 211 200 q 221 165 211 182 q 247 133 231 147 q 287 110 264 119 q 338 101 310 101 l 338 101 q 388 110 365 101 q 428 133 411 119 q 454 165 444 147 q 464 200 464 182 l 464 200 l 464 411 l 400 411 q 387 428 386 411 q 388 460 388 444 l 388 460 q 388 486 389 471 q 400 501 388 501 l 400 501 l 524 501 q 539 503 532 501 q 551 497 546 504 l 551 497 q 556 488 557 492 q 557 476 556 483 l 557 476 l 558 240 z "},"H":{"ha":625,"x_min":94,"x_max":542,"o":"m 542 25 l 542 25 q 526 15 542 13 q 497 15 510 17 l 497 15 q 480 14 489 15 q 463 13 471 13 q 450 15 456 13 q 444 26 444 18 l 444 26 l 444 449 q 425 468 444 468 l 425 468 l 211 468 q 192 449 192 468 l 192 449 l 192 47 q 186 31 192 39 q 174 21 181 24 l 174 21 q 163 18 168 18 q 151 17 157 18 l 151 17 q 140 15 146 15 l 140 15 q 110 14 126 15 q 94 26 94 13 l 94 26 l 94 1001 q 100 1018 94 1010 q 113 1029 106 1026 l 113 1029 q 122 1033 117 1032 q 131 1035 126 1033 l 131 1035 q 140 1035 136 1036 l 140 1035 q 174 1035 156 1033 q 192 1021 192 1036 l 192 1021 l 192 592 q 211 572 192 572 l 211 572 l 425 572 q 444 592 444 572 l 444 592 l 444 1001 q 450 1017 444 1010 q 463 1028 456 1025 l 463 1028 q 483 1033 469 1031 l 483 1033 q 494 1033 489 1035 l 494 1033 q 525 1034 508 1033 q 542 1021 542 1035 l 542 1021 l 542 25 z "},"I":{"ha":615,"x_min":92,"x_max":544,"o":"m 540 69 l 540 69 q 542 51 540 61 q 543 34 543 42 q 540 21 543 26 q 528 15 536 15 l 528 15 l 110 14 q 95 32 94 14 q 96 65 96 50 l 96 65 q 93 99 94 81 q 108 119 92 118 l 108 119 q 188 118 151 118 l 188 118 q 242 120 218 118 q 267 128 267 122 l 267 128 q 267 235 267 169 q 267 380 267 301 q 267 541 267 458 q 268 698 268 624 q 268 832 268 772 q 268 922 268 892 l 268 922 q 244 929 268 928 q 189 931 219 931 l 189 931 q 108 929 153 931 l 108 929 q 95 935 99 929 q 92 951 92 942 q 93 970 92 960 q 96 989 94 981 l 96 989 q 96 1019 97 1003 q 108 1035 94 1035 l 108 1035 l 526 1035 q 540 1018 542 1035 q 540 986 539 1001 l 540 986 q 543 968 542 978 q 544 950 544 958 q 540 936 543 942 q 526 929 536 931 l 526 929 q 449 932 483 932 l 449 932 q 394 928 419 932 q 369 917 369 925 l 369 917 q 369 772 369 858 q 369 581 369 685 q 368 362 368 478 q 368 128 368 246 l 368 128 q 393 124 368 125 q 449 121 418 122 l 449 121 q 528 121 485 119 l 528 121 q 540 115 536 121 q 543 102 543 110 q 542 85 543 94 q 540 69 540 76 z "},"J":{"ha":621,"x_min":99,"x_max":538,"o":"m 538 231 l 538 231 q 519 140 538 181 q 469 72 500 100 q 399 28 439 43 q 315 14 358 14 l 315 14 q 225 31 265 14 q 157 77 185 47 q 114 149 129 107 q 99 242 99 192 l 99 242 l 99 244 q 113 256 99 257 q 140 256 128 254 l 140 256 q 171 258 156 256 q 188 244 186 260 l 188 244 l 190 201 q 201 166 192 183 q 228 134 211 149 q 267 110 244 119 q 317 101 289 101 l 317 101 q 368 110 344 101 q 409 134 392 119 q 437 166 426 149 q 447 201 447 183 l 447 201 l 447 1022 q 464 1035 447 1035 q 494 1033 481 1035 l 494 1033 q 523 1033 508 1033 q 538 1022 538 1033 l 538 1022 l 538 231 z "},"K":{"ha":619,"x_min":94,"x_max":544,"o":"m 540 26 l 540 26 q 539 17 544 19 q 524 14 533 14 q 502 15 514 14 q 482 15 490 15 l 482 15 q 451 13 467 15 q 428 26 435 11 l 428 26 l 275 364 q 218 440 236 447 l 218 440 q 206 412 210 439 q 199 353 201 385 q 197 292 197 321 q 197 258 197 264 l 197 258 l 197 28 q 192 16 197 19 q 177 13 186 13 q 158 14 168 13 q 140 15 149 15 l 140 15 q 110 15 125 17 q 94 28 94 14 l 94 28 l 94 1021 q 110 1032 94 1033 q 142 1032 126 1031 l 142 1032 q 178 1034 158 1032 q 197 1021 197 1036 l 197 1021 l 200 888 q 200 875 200 886 q 201 850 200 864 q 206 824 203 836 q 213 811 208 813 l 213 811 q 239 818 224 807 q 278 864 254 829 l 278 864 l 382 1021 q 406 1033 390 1035 q 439 1032 421 1032 l 439 1032 q 459 1033 447 1032 q 481 1033 471 1033 q 497 1031 492 1033 q 499 1021 503 1028 l 499 1021 l 272 669 q 272 651 269 663 q 278 626 274 639 l 278 626 q 289 596 283 611 l 289 596 l 540 26 z "},"L":{"ha":594,"x_min":97,"x_max":539,"o":"m 536 67 l 536 67 q 538 49 536 58 q 538 33 539 40 q 534 19 538 25 q 522 14 531 14 l 522 14 l 124 14 q 113 15 117 14 q 104 19 108 15 l 104 19 q 97 32 97 25 q 97 47 97 39 l 97 47 l 97 1019 q 112 1031 97 1031 q 140 1032 126 1031 l 140 1032 q 176 1034 157 1033 q 196 1019 196 1035 l 196 1019 l 196 126 q 210 123 196 125 q 247 120 224 121 q 299 119 269 119 q 360 118 329 118 l 360 118 q 522 119 432 118 l 522 119 q 534 114 531 119 q 538 101 538 108 q 538 84 539 93 q 536 67 536 75 z "},"M":{"ha":624,"x_min":96,"x_max":540,"o":"m 540 28 l 540 28 q 524 15 540 14 q 493 15 507 15 l 493 15 q 463 15 479 15 q 447 28 447 14 l 447 28 l 457 642 l 439 650 l 331 318 l 304 318 l 197 650 l 189 650 l 189 28 q 172 14 189 14 q 139 15 154 14 l 139 15 q 110 16 125 17 q 96 28 96 15 l 96 28 l 96 1018 q 113 1034 96 1033 q 143 1035 129 1035 l 143 1035 q 173 1035 158 1035 q 193 1021 188 1035 l 193 1021 l 317 707 l 319 707 l 442 1018 q 463 1033 447 1032 q 493 1035 478 1035 l 493 1035 q 524 1035 507 1035 q 540 1022 540 1036 l 540 1022 l 540 28 z "},"N":{"ha":622,"x_min":99,"x_max":544,"o":"m 544 38 l 544 38 q 538 26 544 29 q 523 22 532 22 q 503 24 514 22 q 483 25 493 25 l 483 25 q 446 23 464 25 q 422 39 428 21 l 422 39 l 228 613 q 204 658 211 663 q 197 617 197 653 l 197 617 l 197 38 q 181 24 197 24 q 151 25 165 25 l 151 25 q 117 24 135 25 q 99 38 99 22 l 99 38 l 99 1019 q 103 1031 99 1028 q 117 1034 108 1033 q 134 1034 125 1035 q 151 1033 143 1033 l 151 1033 q 188 1035 169 1033 q 210 1019 206 1036 l 210 1019 q 292 747 258 860 q 350 563 326 635 l 350 563 q 394 424 376 478 l 394 424 q 400 409 396 422 q 410 380 404 396 q 422 351 415 364 q 433 340 428 339 q 442 360 439 340 q 446 428 446 379 l 446 428 l 446 1019 q 465 1035 446 1035 q 501 1033 483 1035 l 501 1033 q 529 1033 514 1032 q 544 1019 544 1033 l 544 1019 l 544 38 z "},"O":{"ha":625,"x_min":107,"x_max":564,"o":"m 564 201 l 564 201 q 552 93 564 131 q 513 38 540 56 q 442 17 486 19 q 335 14 399 14 l 335 14 q 229 17 272 14 q 159 37 186 19 q 119 92 132 54 q 107 201 107 131 l 107 201 l 107 849 q 121 957 107 919 q 163 1012 135 994 q 233 1032 190 1029 q 335 1035 276 1035 l 335 1035 q 439 1032 396 1035 q 510 1012 482 1029 q 551 957 538 994 q 564 849 564 919 l 564 849 l 564 201 z m 467 169 l 467 885 q 462 915 467 901 q 443 937 457 928 q 403 950 429 946 q 333 954 376 954 l 333 954 q 266 950 292 954 q 226 937 240 946 q 206 915 211 928 q 200 885 200 901 l 200 885 l 200 169 q 204 140 200 153 q 222 119 208 128 q 263 106 236 110 q 333 101 289 101 l 333 101 q 406 106 379 101 q 445 119 432 110 q 463 140 458 128 q 467 169 467 153 l 467 169 z "},"P":{"ha":604,"x_min":101,"x_max":556,"o":"m 556 779 l 556 779 q 548 670 556 713 q 515 586 540 628 l 515 586 q 440 508 488 536 q 314 481 392 481 l 314 481 l 215 481 q 200 478 204 481 l 200 478 q 196 464 196 475 l 196 464 l 196 33 q 180 19 196 19 q 149 19 164 19 l 149 19 q 117 20 133 19 q 101 33 101 21 l 101 33 l 101 1008 q 131 1035 101 1035 l 131 1035 l 313 1035 q 417 1025 371 1035 q 500 975 464 1015 l 500 975 q 529 939 518 956 q 546 902 540 922 q 553 853 551 882 q 556 779 556 824 z m 461 776 l 461 776 q 459 850 461 818 q 443 904 457 882 q 400 936 429 926 q 318 942 371 946 l 318 942 q 257 942 283 943 l 257 942 q 215 939 233 940 q 196 932 196 938 l 196 932 l 196 583 l 311 583 q 397 597 367 583 q 441 637 426 611 q 458 698 456 663 q 461 776 461 733 z "},"Q":{"ha":610,"x_min":110,"x_max":547,"o":"m 547 313 l 547 313 q 506 197 547 243 q 404 131 465 150 l 404 131 q 435 92 414 106 q 476 70 456 79 q 509 51 496 61 q 517 25 522 42 l 517 25 q 494 15 514 15 q 450 26 475 15 q 399 61 425 38 q 356 121 372 85 l 356 121 q 342 120 349 121 q 328 119 335 119 l 328 119 q 245 133 285 119 q 175 171 206 146 q 127 232 144 196 q 110 313 110 268 l 110 313 l 110 842 q 127 922 110 886 q 175 983 144 958 q 245 1022 206 1008 q 328 1035 285 1035 l 328 1035 q 412 1022 372 1035 q 482 983 451 1008 q 530 922 513 958 q 547 842 547 886 l 547 842 l 547 313 z m 454 286 l 454 874 q 444 906 454 890 q 418 935 435 922 q 378 955 401 947 q 326 963 354 963 l 326 963 q 276 955 299 963 q 236 935 253 947 q 210 906 219 922 q 200 874 200 890 l 200 874 l 200 286 q 235 226 200 254 q 326 199 271 199 l 326 199 l 343 199 q 344 240 343 218 q 342 285 344 261 l 342 285 q 338 342 338 321 q 358 368 338 363 l 358 368 q 381 365 372 372 q 392 329 389 357 l 392 329 q 394 296 393 308 q 395 273 394 283 q 396 249 396 263 q 396 214 396 236 l 396 214 q 438 247 422 226 q 454 286 454 267 l 454 286 z "},"R":{"ha":611,"x_min":111,"x_max":550,"o":"m 550 778 l 550 778 q 543 669 550 711 q 511 585 536 626 l 511 585 q 422 499 479 525 l 422 499 l 533 49 q 519 22 536 29 l 519 22 q 510 19 515 21 q 499 18 504 18 l 499 18 l 488 18 q 456 15 472 17 q 436 28 439 14 l 436 28 l 332 460 q 328 472 331 467 q 315 478 325 478 l 315 478 l 222 478 q 203 460 203 478 l 203 460 l 203 49 q 185 21 203 31 l 185 21 q 177 18 182 19 q 168 17 172 17 l 168 17 l 158 17 q 128 16 144 17 q 111 29 111 15 l 111 29 l 111 514 q 112 692 111 606 q 113 846 113 778 l 113 846 l 113 997 q 117 1022 113 1008 q 132 1035 121 1035 l 132 1035 l 294 1035 q 314 1034 303 1035 q 333 1033 325 1033 l 333 1033 q 409 1022 378 1031 q 460 1003 440 1014 l 460 1003 q 497 975 483 990 l 497 975 q 524 939 514 956 q 540 901 535 922 q 548 852 546 881 q 550 778 550 824 z m 457 775 l 457 775 q 455 849 457 817 q 440 901 453 881 q 399 933 426 922 q 319 940 371 943 l 319 940 q 261 942 286 942 l 261 942 q 220 940 239 942 q 201 935 201 939 l 201 935 l 201 590 q 219 581 201 583 q 257 579 236 579 l 257 579 q 313 582 282 579 l 313 582 q 396 591 367 578 q 438 631 425 604 q 454 694 451 657 q 457 775 457 732 z "},"S":{"ha":600,"x_min":108,"x_max":549,"o":"m 549 243 l 549 243 q 526 137 549 181 q 470 66 503 93 q 402 26 438 39 q 342 14 367 14 l 342 14 q 232 35 275 14 q 163 83 189 56 q 126 140 138 111 q 110 186 114 169 l 110 186 q 108 192 108 190 q 111 197 108 194 l 111 197 q 119 200 114 200 l 119 200 l 196 200 q 210 197 206 200 l 210 197 q 211 194 213 194 q 213 189 210 193 l 213 189 q 227 165 217 179 q 253 136 238 150 q 290 112 268 122 q 340 101 311 101 l 340 101 q 388 113 365 101 q 426 144 410 125 q 451 186 442 163 q 461 232 461 210 l 461 232 q 443 309 461 269 q 398 390 425 349 q 338 476 371 432 q 274 567 304 519 l 274 567 q 213 660 233 628 q 182 710 193 692 q 164 740 171 728 q 143 778 157 753 l 143 778 q 130 809 138 786 q 122 851 122 832 l 122 851 q 128 904 122 876 q 154 957 135 932 l 154 957 q 220 1014 182 993 q 307 1035 258 1035 l 307 1035 q 403 1011 369 1035 q 451 960 436 988 l 451 960 q 474 885 469 926 l 474 885 q 474 876 478 881 l 474 876 q 467 875 474 875 l 467 875 l 401 875 q 397 876 399 875 l 397 876 q 396 878 396 876 l 396 878 l 396 885 q 390 904 394 893 q 376 926 386 915 q 351 944 367 936 q 308 951 335 951 l 308 951 q 238 923 264 951 q 213 857 213 894 l 213 857 q 215 824 213 836 q 230 790 217 813 q 272 724 243 768 q 353 594 300 681 l 353 594 q 403 520 369 567 q 468 423 436 474 q 524 324 500 372 q 549 243 549 276 z "},"T":{"ha":615,"x_min":93,"x_max":549,"o":"m 547 986 l 547 986 q 548 968 547 978 q 548 950 549 958 q 543 935 547 942 q 529 929 539 929 l 529 929 l 388 929 q 368 910 368 929 l 368 910 l 368 39 q 350 14 368 19 l 350 14 q 326 13 336 11 l 326 13 q 313 15 319 14 l 313 15 q 284 13 300 15 q 268 25 268 11 l 268 25 l 269 910 q 250 929 269 929 l 250 929 l 131 929 q 112 931 124 929 q 96 940 100 933 l 96 940 q 94 958 94 950 q 94 972 94 965 l 94 972 l 94 986 q 94 1018 96 1001 q 108 1035 93 1035 l 108 1035 l 511 1035 q 529 1033 519 1035 q 542 1024 539 1032 l 542 1024 q 544 1010 544 1017 q 546 999 544 1004 l 546 999 q 547 986 547 993 z "},"U":{"ha":619,"x_min":101,"x_max":538,"o":"m 538 229 l 538 229 q 519 140 538 179 q 472 72 501 100 q 402 28 442 43 q 319 14 363 14 l 319 14 q 237 28 276 14 q 167 72 197 43 q 119 140 138 100 q 101 229 101 179 l 101 229 l 101 1021 q 115 1031 101 1032 q 139 1032 128 1031 l 139 1032 q 173 1035 156 1033 q 190 1021 190 1036 l 190 1021 l 190 199 q 200 165 190 182 q 226 133 210 147 q 267 110 243 119 q 318 101 290 101 l 318 101 q 369 110 346 101 q 408 133 392 119 q 434 165 425 147 q 443 199 443 182 l 443 199 l 443 1021 q 458 1033 443 1033 q 486 1032 472 1032 l 486 1032 q 502 1033 493 1032 q 519 1033 511 1033 q 531 1031 526 1033 q 536 1021 536 1028 l 536 1021 q 537 989 536 1022 q 538 900 538 956 q 538 774 538 844 q 538 628 538 703 l 538 628 l 538 229 z "},"V":{"ha":615,"x_min":94,"x_max":540,"o":"m 539 1021 l 371 33 q 349 15 368 17 q 314 15 331 14 l 314 15 q 283 15 299 17 q 265 29 268 14 l 265 29 l 96 1021 q 111 1033 94 1033 q 142 1033 128 1033 l 142 1033 q 175 1035 158 1035 q 194 1021 192 1036 l 194 1021 l 303 439 l 308 417 q 315 401 311 408 q 321 394 318 394 l 321 394 q 328 402 325 394 q 333 418 331 410 l 333 418 l 339 440 l 440 1021 q 458 1033 443 1033 q 489 1033 474 1033 l 489 1033 q 505 1034 496 1033 q 522 1034 514 1035 q 535 1031 531 1033 q 539 1021 540 1028 l 539 1021 z "},"W":{"ha":619,"x_min":97,"x_max":539,"o":"m 538 1003 l 456 26 q 442 15 454 15 q 418 15 429 15 l 418 15 q 394 15 407 15 q 379 26 382 15 l 379 26 l 321 392 q 317 410 318 410 l 317 410 q 315 404 315 407 l 315 404 q 314 392 315 397 l 314 392 l 258 46 q 251 30 257 39 q 239 18 246 21 l 239 18 q 222 15 231 15 l 222 15 l 213 15 q 192 17 203 17 q 179 26 181 17 l 179 26 l 99 1003 q 102 1019 97 1010 q 114 1031 107 1028 l 114 1031 q 128 1035 121 1035 l 128 1035 l 138 1035 q 167 1034 153 1035 q 182 1022 181 1033 l 182 1022 l 221 539 q 224 519 224 519 l 224 519 q 225 525 224 522 l 225 525 q 228 531 226 528 q 231 538 229 535 l 231 538 l 292 724 q 300 738 294 731 q 311 749 306 746 l 311 749 l 319 749 q 330 747 325 747 q 338 742 335 747 l 338 742 l 408 522 q 410 516 410 519 q 413 510 411 513 l 413 510 q 414 504 414 507 l 414 504 q 417 524 414 504 l 417 524 l 453 1003 q 471 1031 453 1021 l 471 1031 q 492 1035 482 1035 l 492 1035 l 503 1035 q 511 1033 507 1035 l 511 1033 q 517 1032 514 1032 q 522 1031 521 1032 l 522 1031 q 534 1019 529 1028 q 538 1003 539 1010 l 538 1003 z "},"X":{"ha":615,"x_min":96,"x_max":539,"o":"m 536 28 l 536 28 q 533 17 539 19 q 519 14 528 14 q 499 15 510 14 q 481 15 489 15 l 481 15 q 451 15 465 15 q 432 28 436 14 l 432 28 l 322 365 q 310 365 317 385 l 310 365 l 207 46 q 197 31 204 39 q 183 21 190 24 l 183 21 q 171 18 178 18 q 158 17 164 18 l 158 17 q 146 15 153 15 l 146 15 q 128 15 138 15 q 112 15 119 14 q 100 18 104 15 q 97 28 96 21 l 97 28 l 253 531 q 255 549 256 538 q 251 567 254 560 l 251 567 l 110 1004 q 122 1028 104 1022 l 122 1028 q 135 1031 129 1031 q 147 1033 142 1032 l 147 1033 q 160 1033 153 1035 l 160 1033 q 192 1035 175 1033 q 214 1022 208 1038 l 214 1022 l 310 724 q 322 724 317 704 l 322 724 l 413 1003 q 422 1017 415 1010 q 438 1028 429 1025 l 438 1028 q 449 1031 443 1031 q 460 1033 454 1032 l 460 1033 q 472 1033 465 1035 l 472 1033 q 491 1034 481 1033 q 511 1035 501 1035 q 526 1032 521 1035 q 529 1021 532 1029 l 529 1021 l 378 567 q 378 531 372 549 l 378 531 l 536 28 z "},"Y":{"ha":615,"x_min":94,"x_max":543,"o":"m 540 1019 l 371 446 l 371 29 q 351 13 371 13 q 315 15 331 14 l 315 15 q 283 15 300 17 q 265 29 265 14 l 265 29 l 265 446 l 96 1019 q 99 1031 94 1028 q 113 1034 104 1033 q 132 1034 121 1035 q 151 1033 143 1033 l 151 1033 q 184 1034 167 1033 q 206 1019 201 1035 l 206 1019 l 317 629 l 319 629 l 431 1019 q 450 1033 435 1033 q 482 1033 465 1033 l 482 1033 q 501 1034 490 1033 q 522 1034 513 1035 q 538 1031 532 1033 q 540 1019 543 1028 l 540 1019 z "},"Z":{"ha":617,"x_min":94,"x_max":542,"o":"m 539 71 l 539 71 q 540 53 539 63 q 541 34 542 43 q 537 19 540 25 q 525 14 533 14 l 525 14 l 119 14 q 103 21 108 14 l 103 21 q 97 38 97 26 l 97 38 l 97 111 l 411 901 q 414 913 414 907 l 414 913 q 394 922 414 922 l 394 922 l 115 922 q 101 928 106 922 q 96 944 97 935 q 95 964 94 953 q 96 983 96 975 l 96 983 q 97 1016 97 999 q 115 1033 97 1033 l 115 1033 l 503 1033 q 521 1035 513 1033 q 535 1031 529 1036 l 535 1031 q 540 1017 542 1024 q 539 1000 539 1010 l 539 1000 l 539 928 l 232 146 q 231 133 229 139 l 231 133 q 235 124 232 128 q 250 121 239 121 l 250 121 l 525 124 q 536 118 533 124 q 540 105 539 113 q 540 88 540 97 q 539 71 539 79 z "},"\\":{"ha":157,"x_min":null,"x_max":null,"o":""},"a":{"ha":850,"x_min":18,"x_max":815,"o":"m 815 138 l 815 138 q 808 110 815 122 q 788 90 800 99 q 760 78 775 82 q 732 74 746 74 l 732 74 l 97 74 q 44 91 71 74 q 18 138 18 108 l 18 138 l 18 929 q 26 956 18 944 q 47 974 35 967 q 74 985 60 981 q 101 989 89 989 l 101 989 l 732 989 q 760 985 746 989 q 788 972 775 981 q 808 952 800 964 q 815 925 815 940 l 815 925 l 815 138 z m 796 133 l 796 929 q 775 964 796 953 q 735 975 754 975 l 735 975 l 97 975 q 59 965 81 975 q 38 932 38 954 l 38 932 l 38 133 q 56 100 38 113 q 94 88 75 88 l 94 88 l 735 88 q 775 99 754 88 q 796 133 796 110 l 796 133 z m 778 138 l 778 138 q 761 109 778 118 q 729 100 744 100 l 729 100 l 101 100 q 70 110 86 100 q 54 138 54 119 l 54 138 l 54 928 q 72 954 54 946 q 104 963 89 963 l 104 963 l 729 963 q 761 953 744 963 q 778 926 778 944 l 778 926 l 778 138 z m 689 378 l 671 425 l 614 404 l 560 578 l 392 578 l 386 626 l 513 626 l 508 660 l 379 660 l 374 771 q 410 791 397 774 q 422 832 422 808 l 422 832 q 411 873 422 856 q 375 890 400 890 l 375 890 q 336 874 353 890 q 319 835 319 857 l 319 835 q 326 806 319 819 q 333 779 333 793 l 333 779 l 340 532 l 526 532 l 585 336 l 689 378 z m 549 378 l 538 433 q 509 397 525 415 q 474 363 493 378 q 434 338 456 347 q 389 328 413 328 l 389 328 q 337 341 363 328 q 290 376 311 354 q 257 424 269 397 q 244 475 244 450 l 244 475 q 263 548 244 511 q 315 604 281 585 l 315 604 l 315 656 q 232 585 263 629 q 201 483 201 542 l 201 483 q 215 405 201 442 q 255 340 229 368 q 316 296 281 313 q 394 279 351 279 l 394 279 q 440 288 417 279 q 483 311 463 297 q 520 342 503 325 q 549 378 538 360 l 549 378 z "},"b":{"ha":157,"x_min":null,"x_max":null,"o":""},"c":{"ha":4336,"x_min":818,"x_max":3478,"o":"m 3478 1350 l 3478 1350 q 3448 1347 3464 1346 q 3417 1347 3432 1349 l 3417 1347 l 3411 1357 q 3411 1443 3414 1400 l 3411 1443 l 3407 1447 q 3372 1447 3389 1446 q 3339 1443 3354 1449 l 3339 1443 q 3335 1395 3335 1419 q 3336 1349 3336 1371 l 3336 1349 q 3306 1345 3321 1344 q 3276 1347 3292 1346 l 3276 1347 q 3275 1394 3274 1371 q 3274 1442 3276 1418 l 3274 1442 q 3249 1446 3264 1449 q 3222 1449 3233 1443 l 3222 1449 q 3235 1478 3225 1464 q 3250 1507 3244 1492 l 3250 1507 q 3264 1510 3256 1511 q 3275 1517 3272 1510 l 3275 1517 l 3276 1671 q 3296 1711 3282 1692 q 3332 1739 3310 1731 l 3332 1739 q 3407 1742 3368 1754 q 3465 1693 3446 1731 l 3465 1693 l 3476 1657 l 3478 1350 z m 3193 1353 l 3190 1349 l 3125 1349 l 3122 1354 l 3124 1740 l 3128 1743 l 3186 1743 l 3190 1739 q 3190 1546 3189 1643 q 3193 1353 3192 1449 l 3193 1353 z m 3056 1357 l 3044 1365 q 2986 1451 3017 1410 q 2926 1538 2956 1493 l 2926 1538 q 2922 1537 2924 1539 q 2919 1533 2921 1535 l 2919 1533 q 2920 1442 2922 1488 q 2922 1353 2918 1397 l 2922 1353 l 2919 1349 l 2857 1349 l 2853 1353 l 2853 1446 l 2854 1733 l 2861 1729 q 2925 1646 2893 1688 q 2989 1563 2957 1604 l 2989 1563 q 2994 1563 2992 1561 q 2996 1568 2996 1565 l 2996 1568 l 2996 1736 q 2998 1741 2996 1740 q 3003 1743 3000 1742 l 3003 1743 q 3030 1744 3017 1743 q 3054 1740 3043 1744 l 3054 1740 q 3056 1549 3054 1644 q 3056 1357 3058 1453 l 3056 1357 z m 2801 1351 l 2801 1351 q 2766 1348 2785 1344 q 2729 1349 2747 1351 l 2729 1349 q 2708 1384 2717 1365 q 2689 1422 2700 1403 l 2689 1422 q 2662 1467 2671 1443 q 2636 1514 2653 1492 l 2636 1514 q 2631 1506 2631 1515 l 2631 1506 q 2632 1427 2635 1467 q 2632 1350 2629 1388 l 2632 1350 q 2604 1347 2619 1346 q 2574 1347 2589 1349 l 2574 1347 l 2568 1354 q 2567 1511 2574 1433 q 2564 1668 2561 1589 l 2564 1668 q 2541 1673 2554 1675 q 2517 1674 2528 1671 l 2517 1674 l 2517 1682 q 2531 1713 2526 1697 q 2547 1742 2536 1729 l 2547 1742 q 2599 1741 2572 1740 q 2652 1740 2626 1742 q 2701 1730 2678 1738 q 2743 1704 2725 1722 l 2743 1704 q 2785 1629 2775 1672 q 2779 1544 2796 1586 l 2779 1544 q 2760 1513 2772 1528 q 2735 1485 2747 1499 l 2735 1485 q 2747 1457 2739 1469 q 2760 1429 2754 1444 l 2760 1429 l 2801 1351 z m 2472 1478 l 2472 1478 q 2422 1403 2458 1436 q 2342 1360 2385 1369 l 2342 1360 q 2231 1365 2283 1347 q 2143 1429 2179 1383 l 2143 1429 q 2106 1524 2113 1468 q 2121 1625 2099 1579 l 2121 1625 q 2183 1702 2142 1669 q 2274 1738 2225 1735 l 2274 1738 q 2375 1719 2329 1742 q 2451 1653 2421 1697 l 2451 1653 q 2484 1568 2476 1617 q 2472 1478 2492 1519 z m 2088 1679 l 2083 1676 l 1976 1672 q 1972 1659 1971 1667 q 1974 1644 1972 1651 l 1974 1644 q 2010 1640 1990 1639 q 2047 1640 2029 1642 l 2047 1640 q 2053 1607 2054 1625 q 2050 1574 2053 1589 l 2050 1574 q 2013 1572 2032 1571 q 1976 1571 1994 1574 l 1976 1571 l 1972 1567 l 1972 1353 l 1968 1349 l 1914 1349 l 1910 1353 q 1910 1461 1911 1410 q 1907 1571 1908 1513 l 1907 1571 q 1883 1576 1896 1578 q 1857 1576 1869 1574 l 1857 1576 q 1871 1608 1863 1593 q 1888 1638 1879 1622 l 1888 1638 q 1898 1641 1892 1643 q 1907 1647 1904 1639 l 1907 1647 l 1907 1739 l 1917 1743 q 2001 1744 1960 1742 q 2085 1743 2043 1746 l 2085 1743 q 2090 1712 2090 1729 q 2088 1679 2089 1694 l 2088 1679 z m 1811 1372 l 1811 1372 q 1811 1354 1814 1364 q 1797 1347 1808 1344 l 1797 1347 q 1772 1347 1786 1349 q 1747 1350 1758 1346 l 1747 1350 q 1744 1542 1744 1446 q 1742 1735 1744 1638 l 1742 1735 l 1747 1742 q 1778 1742 1763 1740 q 1808 1739 1793 1743 l 1808 1739 l 1811 1372 z m 1682 1350 l 1678 1347 l 1550 1349 l 1546 1356 l 1547 1739 q 1576 1742 1561 1742 q 1607 1740 1592 1742 l 1607 1740 l 1610 1736 l 1613 1418 l 1617 1414 l 1679 1411 q 1682 1380 1683 1396 q 1682 1350 1681 1364 l 1682 1350 z m 1483 1350 l 1483 1350 q 1453 1347 1469 1346 q 1422 1347 1438 1349 l 1422 1347 l 1418 1351 l 1417 1443 l 1413 1447 q 1377 1447 1394 1446 q 1344 1443 1360 1449 l 1344 1443 q 1341 1395 1340 1419 q 1342 1349 1342 1371 l 1342 1349 q 1312 1345 1326 1344 q 1282 1347 1297 1346 l 1282 1347 q 1281 1394 1279 1371 q 1279 1442 1282 1418 l 1279 1442 q 1255 1446 1269 1449 q 1229 1449 1240 1443 l 1229 1449 q 1241 1478 1232 1464 q 1257 1507 1250 1492 l 1257 1507 q 1272 1510 1263 1511 q 1281 1521 1282 1510 l 1281 1521 q 1281 1583 1285 1550 q 1279 1645 1278 1615 q 1292 1700 1281 1675 q 1338 1739 1304 1725 l 1338 1739 q 1413 1742 1374 1754 q 1471 1693 1451 1731 l 1471 1693 l 1482 1657 l 1483 1350 z m 1186 1450 l 1186 1450 q 1135 1385 1169 1414 q 1063 1349 1100 1357 l 1063 1349 q 991 1346 1026 1342 q 925 1365 956 1350 l 925 1365 q 853 1433 883 1393 q 821 1525 824 1474 l 821 1525 q 839 1622 818 1578 q 903 1699 860 1667 l 903 1699 q 946 1722 922 1714 q 995 1733 969 1731 q 1047 1733 1021 1736 q 1094 1718 1072 1729 l 1094 1718 q 1141 1688 1118 1707 q 1178 1644 1164 1668 l 1178 1644 l 1175 1640 q 1151 1624 1163 1633 q 1125 1611 1140 1614 l 1125 1611 q 1066 1661 1101 1646 q 990 1669 1031 1676 l 990 1669 q 926 1633 954 1663 q 886 1571 897 1603 l 886 1571 q 889 1499 874 1532 q 932 1439 904 1465 l 932 1439 q 1043 1411 979 1396 l 1043 1411 q 1092 1435 1071 1414 q 1132 1476 1113 1456 l 1132 1476 q 1160 1465 1147 1472 q 1186 1450 1172 1458 z m 3410 1517 l 3410 1653 l 3399 1674 q 3385 1681 3392 1676 q 3369 1682 3378 1685 l 3369 1682 q 3349 1668 3358 1678 q 3338 1646 3339 1658 l 3338 1646 q 3337 1579 3338 1611 q 3340 1514 3336 1547 l 3340 1514 q 3376 1512 3357 1513 q 3410 1517 3394 1511 l 3410 1517 z m 2717 1564 l 2717 1564 q 2723 1603 2728 1583 q 2714 1640 2718 1622 l 2714 1640 q 2678 1670 2700 1663 q 2633 1674 2657 1678 l 2633 1674 l 2633 1528 l 2639 1525 q 2683 1534 2663 1526 q 2717 1564 2704 1542 z m 2408 1597 l 2408 1597 q 2358 1654 2393 1633 q 2285 1672 2324 1675 l 2285 1672 q 2228 1653 2254 1669 q 2186 1610 2203 1638 l 2186 1610 q 2169 1548 2169 1583 q 2183 1485 2169 1513 l 2183 1485 q 2220 1440 2196 1458 q 2272 1419 2244 1422 l 2272 1419 q 2379 1449 2335 1411 l 2379 1449 q 2417 1519 2407 1478 q 2408 1597 2426 1560 z m 1415 1517 l 1415 1653 l 1404 1674 q 1390 1681 1397 1676 q 1375 1682 1383 1685 l 1375 1682 q 1354 1668 1364 1678 q 1343 1646 1344 1658 l 1343 1646 q 1342 1579 1343 1611 q 1346 1514 1342 1547 l 1346 1514 q 1381 1512 1363 1513 q 1415 1517 1400 1511 l 1415 1517 z "},"d":{"ha":968,"x_min":81,"x_max":885,"o":"m 885 342 l 885 342 q 879 316 885 331 q 867 292 874 301 l 867 292 l 667 36 q 647 22 660 28 q 622 15 633 15 l 622 15 l 342 15 q 318 22 331 15 q 299 36 306 28 l 299 36 l 97 292 q 85 316 90 301 q 81 342 81 331 l 81 342 l 81 706 q 85 731 81 717 q 97 756 90 746 l 97 756 l 299 1013 q 318 1027 306 1021 q 342 1033 331 1033 l 342 1033 l 613 1033 l 644 1033 q 653 1027 647 1033 q 667 1013 660 1021 l 667 1013 l 867 756 q 879 731 874 746 q 885 706 885 717 l 885 706 l 885 342 z m 838 360 l 838 689 q 833 715 838 700 q 821 739 828 729 l 821 739 l 646 964 q 625 981 639 974 q 600 988 611 988 l 600 988 l 364 988 q 339 981 353 988 q 318 964 325 974 l 318 964 l 143 739 q 131 715 136 729 q 126 689 126 700 l 126 689 l 126 360 q 131 333 126 347 q 143 308 136 318 l 143 308 l 318 83 q 339 68 325 74 q 364 63 353 63 l 364 63 l 600 63 q 625 68 611 63 q 646 83 639 74 l 646 83 l 821 308 q 833 333 828 318 q 838 360 838 347 l 838 360 z m 636 326 l 636 326 q 632 308 636 317 q 618 299 628 299 l 618 299 l 340 299 q 326 303 331 299 l 326 303 q 322 313 322 307 l 322 313 l 324 711 q 326 717 324 715 q 331 722 328 719 l 331 722 l 333 724 q 342 726 339 726 q 351 725 346 725 l 351 725 l 621 725 q 633 719 631 725 q 636 707 635 714 l 636 707 l 636 701 q 633 681 636 690 q 618 671 629 671 l 618 671 l 392 671 l 390 543 l 594 543 q 609 533 607 543 q 611 514 611 522 l 611 514 q 609 497 611 507 q 594 488 607 488 l 594 488 l 393 488 l 393 357 l 619 354 q 633 345 631 354 q 636 326 636 336 z "},"e":{"ha":1006,"x_min":38,"x_max":938,"o":"m 929 657 l 700 492 q 686 473 692 485 q 683 450 681 461 l 683 450 l 763 28 q 749 22 768 4 l 749 22 l 504 299 q 486 308 497 307 q 468 300 475 310 l 468 300 l 219 31 q 208 24 213 22 q 207 36 204 25 l 207 36 l 296 456 q 294 479 299 467 q 281 499 290 492 l 281 499 l 57 671 q 64 688 38 688 l 64 688 l 351 694 q 374 701 363 694 q 388 719 385 708 l 388 719 l 492 1022 q 499 1033 494 1033 q 507 1021 504 1032 l 507 1021 l 597 715 q 610 697 600 704 q 632 688 621 689 l 632 688 l 924 674 q 936 669 935 674 q 929 657 938 664 l 929 657 z "},"f":{"ha":157,"x_min":null,"x_max":null,"o":""},"g":{"ha":157,"x_min":null,"x_max":null,"o":""},"h":{"ha":157,"x_min":null,"x_max":null,"o":""},"i":{"ha":278,"x_min":100,"x_max":200,"o":"m 200 26 l 200 26 q 183 14 200 13 q 150 15 165 15 l 150 15 q 134 15 143 15 q 117 14 125 14 q 105 17 110 14 q 100 26 100 19 l 100 26 l 100 1022 q 105 1032 100 1029 q 117 1035 110 1035 q 134 1033 125 1035 q 150 1032 143 1032 l 150 1032 q 166 1033 157 1032 q 183 1035 175 1035 q 195 1032 190 1035 q 200 1022 200 1029 l 200 1022 l 200 26 z "},"j":{"ha":157,"x_min":null,"x_max":null,"o":""},"k":{"ha":157,"x_min":null,"x_max":null,"o":""},"l":{"ha":157,"x_min":null,"x_max":null,"o":""},"m":{"ha":157,"x_min":null,"x_max":null,"o":""},"n":{"ha":157,"x_min":null,"x_max":null,"o":""},"o":{"ha":157,"x_min":null,"x_max":null,"o":""},"p":{"ha":157,"x_min":null,"x_max":null,"o":""},"q":{"ha":974,"x_min":61,"x_max":893,"o":"m 804 426 l 804 426 q 713 274 765 349 q 613 142 661 200 q 526 50 564 85 q 478 15 489 15 l 478 15 q 429 50 467 15 q 343 142 392 85 q 243 274 294 200 q 151 426 192 349 l 151 426 q 103 544 125 479 q 72 677 82 610 q 64 808 61 744 q 88 922 67 872 q 151 1002 110 972 q 260 1032 193 1032 l 260 1032 q 362 1013 324 1032 q 422 969 400 993 q 456 926 444 946 q 478 907 468 907 l 478 907 q 500 926 489 907 q 533 969 511 946 q 594 1013 556 993 q 696 1032 632 1032 l 696 1032 q 806 1002 764 1032 q 868 922 847 972 q 891 808 889 872 q 883 677 893 744 q 851 544 872 610 q 804 426 831 479 z "},"r":{"ha":910,"x_min":54,"x_max":847,"o":"m 844 553 l 844 553 q 846 521 844 538 q 832 504 847 504 l 832 504 l 496 504 l 496 161 q 491 151 496 154 q 478 149 486 149 q 462 149 471 149 q 444 150 453 150 l 444 150 q 428 149 438 150 q 412 149 419 149 q 399 151 404 149 q 393 161 393 154 l 393 161 l 393 504 l 69 504 q 56 521 54 504 q 58 553 58 538 l 58 553 q 56 585 58 568 q 69 601 54 601 l 69 601 l 393 601 l 393 926 q 399 936 393 933 q 412 939 404 939 q 428 938 419 939 q 444 936 438 936 l 444 936 q 462 938 453 936 q 478 939 471 939 q 491 936 486 939 q 496 926 496 933 l 496 926 l 496 601 l 832 601 q 846 585 847 601 q 844 553 844 568 z "},"s":{"ha":538,"x_min":178,"x_max":458,"o":"m 458 689 l 458 689 q 419 583 458 618 q 314 549 381 549 l 314 549 l 219 549 q 199 558 215 549 q 183 575 183 567 l 183 575 l 183 1008 q 198 1026 183 1019 q 225 1033 213 1033 l 225 1033 l 228 1033 l 319 1033 q 422 999 385 1033 q 458 901 458 964 l 458 901 l 458 689 z m 458 371 l 458 371 q 453 318 458 339 q 433 275 449 297 l 433 275 q 384 235 414 249 q 310 221 354 221 l 310 221 l 260 221 l 260 38 q 245 16 260 17 q 219 15 231 15 l 219 15 q 192 17 207 15 q 178 38 178 18 l 178 38 l 178 474 q 185 493 178 485 q 204 501 193 501 l 204 501 q 206 501 206 501 q 210 500 207 500 l 210 500 l 310 500 q 369 495 342 500 q 421 469 397 490 l 421 469 q 440 451 432 460 q 451 431 447 442 q 457 406 456 421 q 458 371 458 392 z m 381 674 l 381 913 q 368 946 381 933 q 310 958 356 958 l 310 958 l 260 958 l 260 628 l 310 628 q 367 640 354 628 q 381 674 381 651 l 381 674 z m 375 369 l 375 369 q 374 395 375 385 q 367 413 374 406 q 349 424 361 421 q 313 428 336 428 l 313 428 l 260 428 l 260 299 l 308 299 q 347 304 333 299 q 367 319 361 310 q 374 341 374 328 q 375 369 375 354 z "},"t":{"ha":157,"x_min":null,"x_max":null,"o":""},"u":{"ha":157,"x_min":null,"x_max":null,"o":""},"v":{"ha":2632,"x_min":-61,"x_max":2721,"o":"m 2140 303 l 2140 303 q 2118 315 2126 306 l 2118 315 q 2115 333 2115 328 q 2117 351 2114 339 l 2117 351 q 2135 363 2124 368 q 2156 345 2147 358 q 2163 318 2164 332 q 2140 303 2161 304 z m 2717 42 l 2717 42 q 2719 33 2721 38 q 2712 24 2717 28 q 2701 19 2707 21 q 2693 15 2696 17 l 2693 15 q 2651 5 2674 6 q 2606 1 2628 4 l 2606 1 q 2477 3 2544 -6 q 2353 32 2410 13 l 2353 32 l 2350 42 l 2343 43 q 2340 53 2342 49 q 2335 61 2338 57 l 2335 61 q 2333 79 2335 71 q 2332 97 2331 88 l 2332 97 q 2333 106 2332 100 q 2332 113 2335 113 l 2332 113 q 2317 104 2328 107 l 2317 104 l 2313 93 q 2283 73 2300 88 q 2249 44 2267 58 q 2214 18 2231 29 q 2185 8 2197 7 l 2185 8 q 2156 19 2165 11 q 2144 38 2147 28 q 2142 58 2142 49 q 2142 68 2143 67 l 2142 68 q 2128 55 2135 61 q 2113 46 2121 49 l 2113 46 l 2108 39 l 2099 38 q 2074 25 2090 25 l 2074 25 l 2067 18 q 2035 28 2043 21 q 2025 47 2026 36 q 2027 74 2024 58 q 2031 107 2031 89 l 2031 107 q 2035 114 2032 107 q 2040 130 2038 121 q 2045 148 2043 139 q 2047 161 2047 157 l 2047 161 l 2039 156 q 2028 153 2036 158 q 2017 146 2019 147 l 2017 146 q 2011 147 2014 146 q 2007 146 2008 149 l 2007 146 l 2004 136 q 1994 132 2000 133 q 1985 129 1989 131 l 1985 129 q 1971 110 1982 121 l 1971 110 q 1957 98 1969 110 q 1930 72 1944 86 q 1903 46 1915 57 q 1888 36 1890 35 l 1888 36 l 1882 28 q 1863 18 1874 26 l 1863 18 l 1843 18 q 1806 72 1811 42 q 1799 124 1800 103 q 1790 148 1799 144 q 1743 119 1781 151 l 1743 119 q 1704 88 1721 101 q 1671 56 1688 75 l 1671 56 q 1662 58 1665 65 q 1656 44 1658 50 l 1656 44 l 1646 43 q 1634 33 1646 42 q 1619 18 1622 24 l 1619 18 q 1594 35 1597 22 q 1596 62 1590 47 q 1612 90 1601 76 q 1628 113 1622 104 l 1628 113 q 1634 116 1631 111 q 1640 128 1638 121 q 1646 142 1643 135 q 1649 151 1649 149 l 1649 151 l 1638 143 l 1631 142 l 1624 132 q 1610 128 1621 135 q 1596 118 1599 121 l 1596 118 l 1592 110 l 1575 104 q 1547 78 1563 89 q 1519 51 1532 67 l 1519 51 q 1513 51 1517 49 q 1507 51 1508 54 l 1507 51 l 1503 40 l 1493 40 q 1491 31 1497 36 q 1475 21 1485 25 q 1457 13 1465 17 q 1446 8 1449 10 l 1446 8 q 1421 8 1435 11 l 1421 8 q 1403 19 1408 17 q 1397 25 1399 22 q 1393 33 1394 28 q 1383 53 1392 39 l 1383 53 q 1386 72 1386 63 q 1389 89 1386 81 l 1389 89 q 1399 110 1392 97 q 1415 138 1407 124 q 1429 163 1424 151 q 1433 179 1435 175 l 1433 179 l 1422 185 l 1418 176 q 1407 172 1414 175 q 1392 163 1400 168 q 1379 152 1385 157 q 1372 143 1374 147 l 1372 143 q 1361 142 1367 143 q 1353 133 1356 140 l 1353 133 l 1343 129 q 1336 121 1342 126 l 1336 121 l 1328 119 q 1309 94 1321 110 q 1289 72 1297 79 l 1289 72 q 1272 49 1288 60 q 1254 40 1256 39 l 1254 40 l 1240 28 q 1222 23 1231 31 q 1200 10 1213 15 q 1170 8 1188 6 q 1128 35 1153 11 l 1128 35 q 1113 65 1110 50 q 1115 100 1115 81 l 1115 100 q 1119 117 1115 106 q 1121 131 1124 128 l 1121 131 l 1114 122 q 1102 117 1110 122 q 1086 106 1094 113 q 1071 94 1078 100 q 1061 86 1064 89 l 1061 86 l 1054 86 q 1048 79 1054 85 q 1034 68 1042 74 q 1019 58 1026 63 q 1011 51 1013 53 l 1011 51 l 1006 50 l 999 40 q 1008 27 999 39 q 1027 0 1018 15 q 1040 -31 1036 -15 q 1029 -60 1043 -47 l 1029 -60 l 1029 -76 q 1011 -85 1025 -75 q 981 -110 997 -96 q 951 -139 965 -125 q 933 -158 938 -153 l 933 -158 q 924 -164 932 -156 q 910 -178 917 -172 l 910 -178 q 886 -197 896 -189 q 863 -186 876 -206 l 863 -186 q 858 -168 864 -176 q 856 -150 853 -160 l 856 -150 q 869 -111 860 -139 q 891 -53 879 -83 q 913 2 903 -22 q 929 31 924 26 l 929 31 q 925 39 932 33 q 915 50 918 44 l 915 50 q 933 60 929 57 q 938 65 938 63 q 941 72 939 68 q 951 85 943 76 l 951 85 q 956 106 951 93 q 968 125 961 119 l 968 125 l 964 132 l 956 121 q 951 119 954 122 q 944 113 947 117 q 939 106 942 110 q 935 101 936 103 l 935 101 q 926 96 931 100 q 919 89 922 92 l 919 89 q 888 68 900 83 q 857 47 875 53 l 857 47 l 854 42 l 844 39 q 819 28 833 28 l 819 28 l 811 21 q 799 19 801 21 l 799 19 q 779 29 785 17 q 774 59 774 42 q 776 92 774 76 q 778 113 778 108 l 778 113 q 782 119 779 113 q 788 135 785 126 q 792 152 790 143 q 794 165 794 161 l 794 165 l 786 161 q 775 158 783 164 q 764 151 767 151 l 764 151 q 758 152 761 150 q 754 151 756 154 l 754 151 l 751 142 q 742 138 747 139 q 732 133 736 136 l 732 133 q 725 122 731 128 q 713 112 719 117 q 699 102 706 107 q 689 90 692 97 l 689 90 l 681 88 l 675 76 q 653 63 663 72 q 638 43 644 54 l 638 43 l 628 40 q 621 33 626 35 q 613 29 615 32 l 613 29 l 603 29 q 596 24 601 24 q 583 25 590 24 q 570 28 576 26 q 561 26 564 29 l 561 26 q 548 39 551 33 q 538 51 544 44 l 538 51 q 529 78 540 65 l 529 78 l 524 69 q 509 63 519 68 q 499 53 499 57 l 499 53 q 480 46 486 47 q 469 44 474 44 q 461 47 465 44 q 447 49 457 49 l 447 49 l 438 67 q 435 85 438 76 q 435 103 433 93 l 435 103 q 438 111 436 106 q 436 118 439 117 l 436 118 q 421 110 428 110 l 421 110 l 417 99 q 397 85 406 93 q 379 69 388 76 l 379 69 q 298 24 329 32 q 253 29 267 17 q 245 69 240 42 q 272 129 250 96 l 272 129 q 340 180 310 157 q 414 225 369 203 l 414 225 q 428 224 417 221 q 450 213 439 226 l 450 213 q 467 192 461 189 q 478 206 474 196 q 490 221 483 215 q 511 207 497 226 l 511 207 q 510 188 514 201 q 501 159 507 174 q 490 132 496 144 q 479 115 483 119 l 479 115 q 489 84 481 79 q 522 118 497 89 l 522 118 q 528 122 525 117 q 533 135 531 128 q 538 149 536 143 q 539 156 539 156 l 539 156 l 538 163 q 543 181 538 165 q 557 214 549 196 q 574 248 565 232 q 586 267 582 264 l 586 267 q 588 271 588 268 q 586 276 589 274 l 586 276 q 599 297 593 288 q 610 318 604 307 l 610 318 q 638 349 621 321 q 676 407 656 376 q 719 459 697 438 q 764 469 742 481 l 764 469 q 781 454 776 461 q 783 440 785 447 q 775 425 781 433 q 765 406 769 417 l 765 406 l 765 393 q 757 374 756 386 l 757 374 q 743 353 754 371 q 719 313 732 335 q 697 272 707 290 q 683 247 686 253 l 683 247 l 675 244 l 672 228 q 662 219 668 226 q 649 201 656 211 q 638 183 643 192 q 628 169 632 174 l 628 169 q 613 149 624 165 q 596 133 601 133 l 596 133 q 586 138 590 135 q 578 140 582 142 l 578 140 q 575 132 576 140 q 573 114 574 124 q 572 96 572 104 q 571 88 571 88 l 571 88 q 578 60 571 71 l 578 60 q 585 58 581 57 q 590 56 590 60 l 590 56 l 613 69 l 619 67 q 624 73 626 68 q 625 81 622 78 l 625 81 q 640 88 633 88 q 649 100 647 88 l 649 100 l 658 104 l 665 119 l 674 121 q 697 147 686 140 q 717 158 707 154 q 737 168 726 163 q 760 188 747 174 l 760 188 l 771 189 q 785 201 774 192 q 800 213 797 210 l 800 213 q 833 218 821 226 q 847 191 844 210 q 844 149 850 172 q 824 114 838 126 l 824 114 l 825 104 l 821 97 l 821 81 q 817 77 819 81 q 818 74 815 74 l 818 74 q 825 74 821 74 q 833 75 829 75 l 833 75 q 848 86 833 76 q 879 108 863 96 q 910 130 896 119 q 925 140 925 140 l 925 140 l 951 161 q 973 181 961 169 q 995 206 985 193 q 1015 233 1006 219 q 1028 258 1024 247 l 1028 258 q 1038 287 1029 261 q 1058 346 1046 313 q 1084 411 1069 379 q 1112 460 1099 443 q 1134 468 1125 476 q 1146 411 1143 460 l 1146 411 q 1143 403 1144 410 q 1141 390 1142 397 q 1139 374 1140 382 q 1136 363 1138 367 l 1136 363 q 1126 358 1132 361 q 1132 351 1119 354 l 1132 351 q 1119 323 1129 342 q 1097 285 1108 304 q 1075 249 1086 265 q 1060 231 1064 233 l 1060 231 q 1056 217 1060 228 q 1047 195 1051 207 q 1037 173 1042 183 q 1031 158 1032 163 l 1031 158 q 1025 156 1028 157 q 1021 153 1022 156 l 1021 153 l 1022 142 q 1015 123 1017 133 q 1003 107 1013 113 l 1003 107 q 1011 92 1000 89 q 1040 106 1022 94 q 1075 133 1057 118 q 1103 151 1093 147 l 1103 151 q 1133 187 1111 172 q 1180 210 1154 201 q 1232 223 1206 219 q 1276 223 1258 226 q 1301 211 1294 219 q 1293 188 1307 203 l 1293 188 l 1304 182 q 1310 170 1307 175 q 1315 158 1313 165 l 1315 158 l 1317 146 l 1331 154 q 1338 159 1332 154 q 1350 169 1343 164 q 1363 180 1357 175 q 1374 186 1369 185 l 1374 186 q 1381 192 1376 193 q 1388 200 1385 192 l 1388 200 l 1438 239 q 1462 235 1453 242 q 1476 216 1471 228 q 1483 190 1481 204 q 1490 167 1486 176 l 1490 167 q 1483 151 1490 163 q 1468 129 1476 140 q 1452 110 1460 118 q 1442 101 1444 101 l 1442 101 q 1438 90 1442 99 q 1429 73 1433 82 q 1424 58 1425 64 q 1428 51 1422 51 l 1428 51 q 1493 75 1464 56 q 1547 117 1522 94 q 1595 160 1572 140 q 1642 182 1618 179 l 1642 182 q 1658 200 1649 197 q 1681 199 1667 203 l 1681 199 q 1701 167 1692 186 q 1694 131 1710 149 l 1694 131 q 1701 128 1696 125 q 1713 135 1707 131 q 1725 146 1719 140 q 1732 153 1731 151 l 1732 153 q 1772 176 1754 163 q 1817 199 1790 189 l 1817 199 q 1845 193 1836 206 q 1856 162 1854 181 q 1857 124 1858 143 q 1856 97 1856 104 l 1856 97 l 1849 88 q 1852 75 1849 81 q 1858 63 1856 69 l 1858 63 q 1888 76 1874 67 q 1917 99 1903 86 q 1944 124 1931 111 q 1968 143 1957 136 l 1968 143 l 2014 183 l 2025 183 q 2056 215 2035 213 q 2091 204 2076 218 q 2107 165 2106 190 q 2078 113 2108 140 l 2078 113 l 2079 101 l 2075 94 l 2075 79 q 2072 75 2074 78 q 2072 71 2069 72 l 2072 71 q 2080 72 2075 71 q 2089 72 2085 74 l 2089 72 q 2103 84 2089 74 q 2135 106 2118 94 q 2165 128 2151 118 q 2179 138 2179 138 l 2179 138 l 2210 165 q 2258 197 2233 188 q 2310 219 2282 206 l 2310 219 q 2324 218 2313 215 q 2347 207 2335 221 l 2347 207 q 2365 187 2358 183 q 2376 200 2371 190 q 2388 215 2381 210 q 2407 201 2394 221 l 2407 201 q 2406 183 2410 196 q 2397 155 2403 169 q 2385 128 2392 140 q 2375 111 2379 115 l 2375 111 q 2376 89 2376 96 q 2382 69 2375 82 l 2382 69 q 2473 45 2418 50 q 2580 42 2528 40 q 2672 45 2632 43 q 2717 42 2711 47 z m 885 306 l 885 306 q 873 310 879 307 q 864 318 867 313 l 864 318 q 860 335 861 329 q 863 353 860 342 l 863 353 q 881 365 868 369 q 901 348 893 361 q 908 321 910 335 q 885 306 907 307 z m 286 213 l 286 213 q 263 181 281 190 l 263 181 l 261 172 q 242 160 250 169 q 231 140 233 151 l 231 140 l 217 131 l 214 121 q 203 116 208 121 q 192 105 197 111 q 181 94 188 99 q 168 89 175 89 l 168 89 q 158 74 164 82 q 143 64 151 67 l 143 64 q 119 44 133 50 q 96 25 106 38 l 96 25 l 86 25 l 81 19 q 68 19 76 21 q 51 13 60 17 q 33 6 42 10 q 19 1 24 3 l 19 1 q -45 42 -29 17 q -59 99 -61 68 q -44 166 -57 131 q -21 235 -31 201 l -21 235 l -6 249 l -8 261 q 3 276 -1 268 q 13 293 7 285 l 13 293 l 25 293 l 25 297 q 21 308 25 303 l 21 308 l 36 321 l 33 328 l 43 343 q 56 349 53 340 q 57 364 60 357 l 57 364 q 81 391 71 376 q 108 414 92 406 l 108 414 q 119 408 113 403 q 115 419 125 413 l 115 419 q 138 447 121 436 q 175 465 154 457 q 216 480 196 474 q 249 493 236 486 l 249 493 l 258 489 l 264 490 q 283 442 281 474 q 275 377 285 410 q 247 318 265 344 q 208 285 229 292 l 208 285 q 206 267 214 275 q 188 258 199 260 q 167 260 176 256 q 158 276 157 264 l 158 276 q 167 294 160 286 q 184 308 175 301 q 200 320 193 314 q 207 333 207 326 l 207 333 q 235 364 221 343 q 251 401 249 385 l 251 401 q 255 415 251 404 q 261 438 258 426 q 263 457 264 450 q 250 460 261 464 l 250 460 q 233 452 240 457 q 214 450 225 447 l 214 450 l 199 435 l 192 435 l 172 413 l 167 413 l 160 400 l 153 400 l 150 390 l 128 374 l 128 364 q 110 350 119 361 q 94 326 101 339 q 81 299 86 313 q 72 281 75 286 l 72 281 l 63 276 l 64 265 q 54 249 57 258 q 44 233 51 240 l 44 233 q 37 211 44 231 q 19 165 29 192 q 1 110 10 139 q -7 60 -7 81 l -7 60 q 8 42 1 46 q 23 38 15 38 q 40 44 31 39 q 61 50 49 49 l 61 50 l 69 58 l 83 61 q 108 85 90 71 q 144 113 125 99 q 180 141 164 128 q 197 161 196 154 l 197 161 l 217 178 q 222 178 221 175 q 226 185 224 181 q 230 192 228 189 q 236 192 232 194 l 236 192 l 240 201 l 250 206 q 257 217 251 211 q 269 224 263 222 q 280 224 275 226 q 286 213 285 222 z m 2343 164 l 2343 164 q 2322 162 2333 160 q 2301 165 2311 164 l 2301 165 q 2278 154 2293 161 q 2247 138 2263 147 q 2219 119 2231 129 q 2204 96 2207 108 l 2204 96 l 2194 92 q 2188 76 2193 79 q 2185 57 2183 72 l 2185 57 q 2187 51 2185 54 q 2192 49 2189 47 l 2192 49 q 2213 58 2196 50 q 2247 77 2229 67 q 2279 98 2265 88 q 2293 114 2293 108 l 2293 114 l 2308 125 q 2324 143 2310 132 q 2343 164 2338 154 z m 1274 183 l 1274 183 q 1270 185 1275 186 q 1258 181 1265 183 q 1245 175 1251 178 q 1236 172 1239 172 l 1236 172 q 1228 175 1232 176 l 1228 175 l 1222 165 l 1215 164 l 1208 156 q 1195 148 1203 156 q 1181 130 1188 140 q 1170 109 1175 119 q 1165 92 1165 99 l 1165 92 q 1157 79 1161 90 q 1155 58 1153 68 q 1170 42 1157 47 q 1215 46 1183 36 l 1215 46 l 1221 56 q 1233 63 1224 54 q 1251 85 1242 71 q 1267 114 1261 99 q 1271 139 1274 129 l 1271 139 q 1266 147 1271 142 q 1258 157 1261 151 q 1258 169 1256 163 q 1274 183 1260 175 z m 742 418 l 731 413 l 726 401 l 718 397 q 708 378 717 392 q 688 351 699 364 q 668 328 678 338 q 656 319 658 318 l 656 319 l 658 310 q 645 294 649 303 q 636 274 642 285 l 636 274 l 629 272 q 622 243 632 260 q 602 215 611 226 q 592 199 593 203 q 613 207 592 194 l 613 207 q 622 222 614 213 q 636 228 629 231 l 636 228 l 639 242 l 672 283 q 682 293 678 285 q 685 306 686 301 l 685 306 q 692 313 688 307 q 700 324 696 318 q 708 333 704 329 q 714 336 713 338 l 714 336 q 719 355 714 344 q 731 377 725 365 q 742 399 738 389 q 742 418 746 410 l 742 418 z m 982 -81 l 982 -81 q 992 -48 989 -68 q 994 -10 996 -28 q 984 16 992 8 q 963 11 976 24 l 963 11 q 957 -22 963 -3 q 943 -60 951 -40 q 926 -99 935 -79 q 913 -133 918 -118 l 913 -133 q 911 -149 908 -149 q 919 -145 914 -150 q 931 -133 925 -140 q 936 -124 936 -125 l 936 -124 l 947 -117 q 950 -110 946 -114 q 958 -108 954 -106 l 958 -108 q 967 -92 960 -97 q 982 -81 974 -87 z m 446 169 l 446 169 q 426 167 438 165 q 406 171 415 168 l 406 171 q 381 160 396 167 q 350 144 365 153 q 323 124 335 135 q 308 101 311 114 l 308 101 l 299 96 q 292 80 297 83 q 289 61 288 76 l 289 61 q 290 56 289 58 q 296 54 292 53 l 296 54 q 317 64 300 56 q 351 83 333 72 q 383 103 369 93 q 397 119 397 114 l 397 119 l 413 131 q 428 149 414 138 q 446 169 442 160 z "},"w":{"ha":950,"x_min":69,"x_max":879,"o":"m 879 518 l 879 518 q 870 485 879 503 q 861 447 861 468 l 861 447 q 849 406 861 428 q 839 365 838 385 l 839 365 q 807 309 822 343 q 776 237 792 275 q 741 160 760 199 q 700 92 722 122 q 650 42 678 61 q 588 24 622 24 l 588 24 q 536 33 560 24 q 485 42 513 42 l 485 42 q 441 29 461 42 q 411 17 421 17 l 411 17 q 317 56 356 17 q 254 150 278 94 q 219 265 231 206 q 208 367 208 325 l 208 367 q 187 474 208 421 q 139 578 165 526 q 91 683 113 631 q 69 786 69 735 l 69 786 q 73 813 69 797 q 88 829 76 829 l 88 829 q 140 800 121 829 q 172 733 158 771 q 199 659 185 696 q 240 607 214 622 l 240 607 q 253 608 247 603 q 263 619 260 613 l 263 619 q 266 634 265 624 q 266 658 267 644 q 263 685 265 671 q 257 710 261 699 l 257 710 q 240 747 253 721 q 215 807 228 774 q 194 876 203 840 q 189 946 186 913 l 189 946 q 205 967 190 963 q 231 965 219 972 l 231 965 q 262 926 249 954 q 286 863 275 897 q 307 790 297 828 q 328 719 317 751 q 354 667 340 688 q 386 647 368 647 l 386 647 q 404 655 397 647 q 415 674 411 663 q 422 697 419 685 q 424 715 424 708 l 424 715 q 412 847 424 781 q 400 981 400 914 l 400 981 q 408 1013 400 996 q 435 1029 415 1029 l 435 1029 q 465 1008 457 1029 q 474 969 474 988 l 474 969 q 474 898 474 940 q 482 814 475 856 q 504 739 489 772 q 550 697 519 706 l 550 697 q 588 745 576 711 q 607 820 600 779 q 621 900 614 861 q 646 963 628 939 l 646 963 q 667 973 654 974 q 692 964 681 972 l 692 964 q 702 948 700 957 q 704 931 704 939 l 704 931 q 698 873 704 900 q 686 814 692 846 l 686 814 q 658 690 676 756 q 640 558 640 625 l 640 558 q 653 456 640 506 q 703 365 667 406 l 703 365 l 725 363 q 756 413 743 379 q 780 481 768 446 q 805 541 792 515 q 836 567 818 567 l 836 567 q 868 553 857 567 q 879 518 879 539 z "},"x":{"ha":4336,"x_min":-235,"x_max":4646,"o":"m 4646 1339 l 2546 1338 q 2556 1358 2546 1349 q 2571 1379 2565 1368 l 2571 1379 l 2025 1381 l 2024 1379 q 2038 1358 2029 1368 q 2053 1338 2047 1349 l 2053 1338 q 1810 1337 1958 1338 q 1482 1335 1661 1336 q 1106 1335 1303 1335 q 719 1335 910 1335 l 719 1335 l -235 1335 l -235 1378 l 2013 1381 l 2015 1383 q 1999 1410 2007 1397 q 1986 1438 1992 1422 l 1986 1438 l 697 1438 l -235 1438 l -235 1475 l 1971 1475 q 1978 1674 1946 1578 q 2096 1836 2010 1769 l 2096 1836 q 2178 1879 2132 1864 q 2274 1898 2225 1894 q 2372 1891 2324 1901 q 2460 1857 2419 1881 l 2460 1857 q 2538 1792 2501 1832 q 2596 1710 2575 1753 l 2596 1710 q 2626 1597 2619 1660 q 2617 1478 2632 1535 l 2617 1478 l 4646 1478 l 4646 1440 l 2606 1440 l 2604 1440 l 2617 1475 q 2294 1477 2454 1476 q 1972 1478 2135 1478 l 1972 1478 q 1978 1457 1976 1469 q 1988 1438 1979 1444 l 1988 1438 l 2601 1440 q 2593 1424 2600 1433 q 2580 1406 2586 1414 q 2571 1392 2574 1397 q 2575 1386 2568 1386 l 2575 1386 l 4646 1385 l 4646 1339 z m 4646 1194 l 4646 1194 q 4363 1194 4535 1194 q 3976 1194 4192 1194 q 3508 1193 3760 1193 q 2985 1192 3257 1193 q 2432 1191 2714 1192 q 1872 1190 2150 1190 l 1872 1190 q -235 1188 897 1189 l -235 1188 l -235 1269 l 2124 1274 l 2126 1276 q 2089 1303 2108 1289 q 2056 1335 2069 1317 l 2056 1335 l 2532 1335 q 2503 1305 2521 1319 q 2469 1278 2485 1290 l 2469 1278 l 2474 1274 q 2870 1275 2665 1275 q 3279 1276 3075 1275 q 3681 1276 3483 1276 q 4056 1276 3878 1276 q 4384 1277 4233 1276 q 4646 1278 4535 1278 l 4646 1278 l 4646 1194 z m 3086 -144 l 3085 -154 l 3031 -196 q 3053 -203 3038 -208 l 3053 -203 q 3064 -196 3058 -200 q 3076 -197 3069 -192 l 3076 -197 q 3081 -202 3079 -200 q 3082 -208 3083 -204 l 3082 -208 q 3058 -221 3071 -215 q 3031 -222 3046 -226 l 3031 -222 q 3009 -212 3019 -219 q 2994 -194 2999 -206 l 2994 -194 q 2992 -172 2989 -183 q 2999 -150 2994 -160 l 2999 -150 q 3060 -124 3021 -115 l 3060 -124 q 3086 -144 3076 -131 l 3086 -144 z m 2976 -132 l 2976 -132 q 2976 -147 2978 -140 q 2965 -153 2974 -153 l 2965 -153 l 2963 -219 q 2952 -222 2957 -221 q 2942 -221 2947 -224 l 2942 -221 l 2940 -154 l 2926 -149 q 2927 -136 2928 -143 q 2933 -129 2926 -129 l 2933 -129 q 2942 -110 2940 -122 q 2960 -100 2944 -99 l 2960 -100 q 2963 -120 2963 -108 q 2976 -132 2963 -132 z m 2900 -215 l 2900 -215 q 2884 -215 2890 -208 q 2868 -222 2878 -221 l 2868 -222 q 2839 -223 2853 -225 q 2814 -211 2825 -221 l 2814 -211 q 2803 -168 2799 -193 l 2803 -168 q 2819 -140 2806 -151 q 2847 -125 2832 -129 l 2847 -125 q 2862 -126 2856 -124 q 2874 -131 2868 -128 q 2887 -135 2881 -133 q 2899 -133 2893 -136 l 2899 -133 q 2901 -174 2899 -154 q 2900 -215 2903 -194 z m 2786 -150 l 2771 -157 l 2769 -221 q 2761 -224 2767 -225 q 2751 -224 2756 -224 l 2751 -224 q 2749 -204 2747 -215 q 2751 -183 2750 -193 q 2749 -164 2751 -172 q 2736 -153 2747 -156 l 2736 -153 q 2734 -138 2733 -146 q 2744 -132 2735 -131 l 2744 -132 q 2751 -114 2749 -125 q 2765 -103 2753 -103 l 2765 -103 l 2768 -103 q 2771 -125 2771 -112 q 2785 -135 2771 -137 l 2785 -135 q 2787 -142 2788 -137 q 2786 -150 2786 -146 l 2786 -150 z m 2717 -176 l 2717 -176 q 2715 -197 2717 -187 q 2704 -215 2713 -207 l 2704 -215 q 2656 -228 2683 -235 l 2656 -228 q 2642 -221 2649 -226 q 2629 -208 2635 -215 l 2629 -208 q 2631 -201 2626 -201 q 2639 -197 2636 -200 l 2639 -197 q 2651 -199 2646 -196 q 2661 -205 2656 -201 q 2672 -209 2667 -208 q 2683 -204 2678 -210 l 2683 -204 q 2692 -192 2689 -199 q 2692 -178 2696 -186 l 2692 -178 q 2677 -164 2688 -169 q 2656 -153 2667 -158 q 2640 -140 2646 -149 q 2636 -117 2633 -132 l 2636 -117 q 2644 -98 2635 -106 q 2660 -83 2653 -90 l 2660 -83 q 2684 -81 2671 -81 q 2706 -93 2697 -82 l 2706 -93 q 2709 -98 2707 -96 q 2711 -103 2711 -100 l 2711 -103 q 2705 -110 2711 -110 q 2694 -114 2699 -111 l 2694 -114 q 2680 -103 2688 -108 q 2664 -106 2672 -99 l 2664 -106 q 2659 -116 2658 -110 q 2661 -128 2660 -122 l 2661 -128 q 2677 -138 2668 -135 q 2694 -147 2686 -142 q 2709 -158 2703 -151 q 2717 -176 2715 -165 z m 2531 -228 l 2531 -228 q 2515 -229 2524 -231 q 2508 -215 2506 -228 l 2508 -215 q 2510 -183 2508 -200 q 2497 -158 2513 -167 l 2497 -158 q 2484 -160 2489 -156 q 2475 -171 2479 -165 l 2475 -171 l 2475 -229 q 2461 -231 2469 -231 q 2454 -221 2453 -232 l 2454 -221 l 2454 -146 q 2468 -144 2461 -147 q 2481 -139 2475 -142 q 2494 -135 2488 -136 q 2507 -139 2500 -133 l 2507 -139 l 2519 -147 q 2532 -185 2533 -162 q 2531 -228 2531 -208 z m 2428 -156 l 2428 -156 q 2422 -165 2428 -161 q 2413 -172 2417 -169 l 2413 -172 q 2389 -190 2401 -183 q 2369 -208 2376 -196 l 2369 -208 q 2382 -214 2375 -215 q 2396 -212 2389 -212 l 2396 -212 q 2408 -206 2401 -210 q 2419 -208 2414 -201 l 2419 -208 q 2422 -214 2421 -211 q 2419 -218 2424 -217 l 2419 -218 q 2392 -231 2408 -229 q 2363 -228 2376 -232 l 2363 -228 q 2340 -208 2349 -221 q 2333 -181 2332 -196 l 2333 -181 q 2363 -136 2336 -151 l 2363 -136 q 2407 -136 2385 -128 l 2407 -136 q 2418 -144 2413 -140 q 2428 -156 2424 -149 z m 2313 -226 l 2313 -226 q 2293 -227 2301 -221 q 2275 -236 2285 -233 l 2275 -236 q 2250 -237 2263 -239 q 2228 -226 2238 -235 l 2228 -226 q 2213 -174 2206 -208 l 2213 -174 q 2232 -148 2218 -158 q 2263 -137 2246 -137 l 2263 -137 q 2271 -138 2267 -136 q 2279 -141 2275 -140 q 2286 -141 2283 -142 q 2290 -133 2289 -140 l 2290 -133 l 2290 -87 q 2305 -85 2296 -85 q 2313 -94 2314 -85 l 2313 -94 l 2313 -226 z m 2185 -231 l 2185 -231 q 2173 -233 2179 -233 q 2161 -232 2167 -233 l 2161 -232 l 2160 -92 q 2163 -89 2160 -89 q 2168 -86 2165 -89 l 2168 -86 q 2177 -87 2172 -86 q 2185 -92 2182 -87 l 2185 -92 q 2185 -162 2183 -129 q 2185 -231 2188 -194 z m 2138 -211 l 2138 -211 q 2113 -233 2128 -225 q 2081 -237 2099 -240 l 2081 -237 q 2059 -229 2069 -235 q 2044 -212 2049 -224 l 2044 -212 q 2040 -190 2040 -201 q 2044 -168 2039 -179 l 2044 -168 q 2083 -139 2056 -143 l 2083 -139 q 2114 -145 2099 -139 q 2136 -168 2129 -151 l 2136 -168 q 2140 -189 2140 -178 q 2138 -211 2140 -200 z m 2021 -165 l 2021 -165 q 2021 -188 2025 -176 q 2011 -211 2017 -200 l 2011 -211 q 1924 -235 1974 -249 l 1924 -235 q 1896 -219 1908 -228 q 1876 -194 1883 -210 l 1876 -194 q 1872 -150 1867 -174 q 1889 -110 1878 -126 l 1889 -110 q 1923 -87 1904 -96 q 1964 -86 1942 -79 l 1964 -86 q 1992 -99 1979 -90 q 2013 -121 2006 -107 l 2013 -121 q 2010 -131 2018 -131 q 2000 -136 2003 -131 l 2000 -136 q 1990 -128 1993 -135 q 1981 -118 1986 -122 l 1981 -118 q 1932 -110 1961 -103 l 1932 -110 q 1912 -122 1921 -112 q 1897 -143 1903 -132 l 1897 -143 q 1895 -176 1893 -158 q 1911 -204 1897 -193 l 1911 -204 q 1943 -216 1924 -215 q 1978 -208 1963 -217 l 1978 -208 q 1985 -202 1981 -206 q 1992 -193 1990 -199 l 1992 -193 q 1972 -188 1983 -186 q 1950 -187 1960 -190 l 1950 -187 q 1951 -178 1947 -182 q 1957 -168 1956 -174 l 1957 -168 q 1989 -165 1972 -164 q 2021 -165 2006 -165 z m 1776 -164 l 1718 -206 q 1728 -215 1718 -215 l 1728 -215 q 1739 -214 1733 -217 q 1750 -209 1744 -211 q 1760 -208 1756 -207 q 1769 -215 1765 -208 l 1769 -215 q 1761 -227 1768 -224 q 1749 -233 1754 -231 l 1749 -233 q 1718 -235 1733 -237 q 1692 -221 1703 -232 l 1692 -221 q 1679 -175 1675 -203 l 1679 -175 q 1694 -147 1682 -160 q 1721 -132 1706 -135 l 1721 -132 q 1776 -158 1757 -128 l 1776 -158 l 1776 -164 z m 1663 -228 l 1663 -228 q 1658 -234 1663 -233 q 1649 -235 1653 -235 l 1649 -235 q 1642 -231 1644 -235 l 1642 -231 q 1643 -192 1639 -212 q 1631 -161 1647 -172 l 1631 -161 q 1617 -162 1622 -158 q 1607 -172 1611 -167 l 1607 -172 q 1608 -204 1607 -187 q 1606 -235 1608 -221 l 1606 -235 q 1593 -235 1600 -232 q 1586 -228 1586 -237 l 1586 -228 l 1586 -87 q 1594 -85 1589 -85 q 1603 -85 1599 -86 l 1603 -85 q 1606 -99 1606 -92 q 1606 -114 1606 -107 q 1607 -127 1606 -121 q 1615 -137 1608 -133 l 1615 -137 q 1631 -137 1624 -135 q 1644 -143 1638 -140 l 1644 -143 q 1660 -160 1657 -150 q 1663 -183 1663 -171 q 1661 -206 1663 -194 q 1663 -228 1660 -218 z m 1561 -107 l 1561 -107 q 1547 -109 1554 -110 q 1536 -117 1539 -108 l 1536 -117 l 1536 -233 q 1528 -236 1533 -237 q 1517 -236 1522 -235 l 1517 -236 l 1513 -231 l 1513 -114 q 1502 -109 1508 -110 q 1490 -107 1496 -108 q 1482 -102 1485 -106 q 1483 -89 1479 -99 l 1483 -89 q 1521 -85 1501 -83 q 1560 -85 1540 -86 l 1560 -85 q 1562 -95 1563 -89 q 1561 -107 1561 -101 z m 2450 1268 l 2450 1272 l 2157 1274 q 2151 1273 2156 1271 q 2147 1268 2146 1275 l 2147 1268 q 2219 1242 2181 1251 q 2299 1231 2258 1232 q 2378 1240 2339 1231 q 2450 1268 2417 1249 l 2450 1268 z m 3054 -150 l 3054 -150 q 3039 -144 3047 -143 l 3039 -144 q 3028 -151 3032 -147 q 3018 -158 3024 -154 l 3018 -158 q 3015 -169 3017 -164 q 3018 -176 3014 -174 l 3018 -176 q 3038 -166 3029 -174 q 3054 -150 3047 -158 z m 2876 -193 l 2876 -193 q 2883 -174 2883 -185 q 2875 -157 2882 -164 l 2875 -157 q 2854 -148 2868 -146 q 2832 -157 2840 -150 l 2832 -157 q 2825 -186 2825 -168 l 2825 -186 q 2833 -196 2828 -192 q 2842 -203 2838 -200 l 2842 -203 q 2860 -203 2851 -206 q 2876 -193 2869 -201 z m 2396 -161 l 2396 -157 q 2379 -153 2390 -151 l 2379 -153 q 2367 -158 2374 -156 q 2358 -168 2361 -161 l 2358 -168 q 2354 -178 2357 -174 q 2357 -187 2351 -183 l 2357 -187 q 2377 -175 2368 -182 q 2396 -161 2386 -168 l 2396 -161 z m 2289 -176 l 2289 -176 q 2277 -162 2286 -167 q 2257 -158 2268 -158 l 2257 -158 q 2245 -165 2250 -160 q 2235 -174 2240 -169 l 2235 -174 q 2231 -186 2233 -181 q 2232 -199 2229 -192 l 2232 -199 q 2251 -215 2236 -210 l 2251 -215 q 2286 -206 2274 -222 l 2286 -206 q 2292 -192 2290 -200 q 2289 -176 2293 -183 z m 2117 -178 l 2117 -178 q 2097 -162 2113 -162 q 2072 -168 2082 -161 l 2072 -168 q 2064 -180 2065 -172 q 2061 -196 2063 -187 l 2061 -196 q 2068 -208 2064 -203 q 2079 -215 2072 -212 l 2079 -215 q 2099 -217 2090 -218 q 2115 -206 2108 -215 l 2115 -206 q 2119 -192 2118 -199 q 2117 -178 2121 -185 z m 1742 -164 l 1742 -158 q 1726 -157 1736 -157 l 1726 -157 q 1714 -161 1719 -157 q 1706 -171 1708 -165 l 1706 -171 q 1703 -178 1706 -175 q 1706 -185 1701 -182 l 1706 -185 q 1724 -176 1717 -182 q 1742 -164 1732 -169 l 1742 -164 z "},"y":{"ha":157,"x_min":null,"x_max":null,"o":""},"z":{"ha":2583,"x_min":131,"x_max":2538,"o":"m 2538 93 l 2538 93 q 2533 69 2536 82 q 2518 50 2529 57 l 2518 50 q 2490 65 2499 51 q 2474 94 2482 79 q 2456 117 2467 108 q 2422 118 2446 126 l 2422 118 q 2406 99 2408 113 q 2401 74 2403 86 q 2394 56 2400 63 q 2367 58 2388 50 l 2367 58 q 2367 190 2364 121 q 2388 318 2369 258 l 2388 318 q 2418 330 2400 326 q 2453 331 2436 333 q 2485 319 2471 328 q 2507 296 2500 311 l 2507 296 q 2524 195 2518 247 q 2538 93 2529 143 z m 2260 79 l 2260 79 q 2251 63 2260 71 q 2233 51 2243 54 l 2233 51 q 2216 58 2225 51 q 2207 72 2207 64 l 2207 72 l 2213 317 q 2224 327 2217 325 q 2237 327 2231 329 q 2248 320 2243 325 q 2253 308 2253 315 l 2253 308 q 2251 192 2251 251 q 2260 79 2250 132 z m 2115 311 l 2115 311 q 2108 218 2113 267 q 2107 122 2104 169 l 2107 122 q 2113 94 2108 108 q 2107 65 2118 79 l 2107 65 q 2084 53 2097 54 q 2058 58 2071 51 l 2058 58 q 2047 72 2050 64 q 2044 88 2044 79 q 2042 105 2043 96 q 2036 121 2042 114 l 2036 121 q 2022 140 2028 128 q 2010 162 2017 151 q 1994 178 2004 172 q 1969 176 1985 183 l 1969 176 q 1956 143 1954 164 q 1961 103 1958 122 q 1958 72 1964 85 q 1924 61 1953 60 l 1924 61 q 1918 126 1918 93 q 1920 193 1918 160 q 1924 260 1922 226 q 1924 325 1926 293 l 1924 325 q 1938 334 1928 335 q 1953 331 1947 333 l 1953 331 q 1980 304 1971 319 q 1996 273 1989 289 q 2010 242 2003 257 q 2035 217 2018 228 l 2035 217 q 2059 238 2053 224 q 2068 269 2065 251 q 2075 303 2071 286 q 2092 329 2079 319 l 2092 329 q 2108 325 2103 332 q 2115 311 2113 318 z m 1822 72 l 1822 72 q 1804 59 1819 61 q 1781 65 1789 57 l 1781 65 q 1763 98 1769 78 q 1749 135 1757 118 q 1726 165 1740 153 q 1686 172 1713 176 l 1686 172 q 1671 142 1669 160 q 1675 106 1672 124 q 1673 73 1678 88 q 1639 56 1668 58 l 1639 56 l 1628 71 l 1636 333 q 1670 342 1651 339 q 1708 344 1689 344 q 1747 340 1728 344 q 1779 326 1765 336 l 1779 326 l 1819 283 q 1825 247 1832 263 q 1808 216 1818 231 q 1792 185 1797 201 q 1801 149 1786 169 l 1801 149 q 1820 113 1813 132 q 1822 72 1828 93 z m 1519 292 l 1519 292 q 1527 240 1522 268 q 1533 185 1532 213 q 1529 132 1535 158 q 1507 85 1524 106 l 1507 85 q 1458 60 1485 69 q 1403 63 1432 51 l 1403 63 q 1367 104 1376 79 q 1358 158 1358 129 q 1363 217 1358 186 q 1365 274 1367 247 l 1365 274 q 1376 310 1361 294 q 1407 333 1392 325 l 1407 333 q 1473 337 1439 349 q 1519 292 1507 325 z m 1258 332 l 1258 332 q 1252 313 1256 321 q 1238 301 1249 304 l 1238 301 q 1214 303 1226 301 q 1189 303 1201 304 q 1167 297 1176 303 q 1151 278 1157 292 l 1151 278 q 1168 258 1154 264 q 1195 248 1182 253 q 1215 235 1208 243 q 1211 206 1222 226 l 1211 206 q 1193 198 1203 200 q 1174 194 1183 196 q 1156 188 1164 192 q 1143 172 1147 183 l 1143 172 q 1143 142 1140 157 q 1147 112 1146 126 q 1144 85 1149 97 q 1125 63 1140 72 l 1125 63 q 1103 69 1111 60 q 1088 85 1094 78 l 1088 85 q 1088 212 1085 150 q 1094 336 1090 274 l 1094 336 q 1122 347 1107 344 q 1154 348 1138 349 q 1188 347 1171 347 q 1218 351 1204 346 l 1218 351 q 1240 346 1229 349 q 1258 332 1251 343 z m 1007 99 l 1007 99 q 1001 75 1004 88 q 983 56 997 63 l 983 56 q 960 65 968 54 q 949 88 951 76 l 949 88 q 951 208 953 149 q 963 326 949 268 l 963 326 q 974 338 967 336 q 990 337 982 340 q 1003 326 997 333 q 1007 311 1008 319 l 1007 311 q 1001 204 1003 257 q 1007 99 1000 151 z m 857 93 l 857 93 q 831 63 849 69 q 792 57 814 56 q 748 63 771 58 q 706 64 725 67 l 706 64 q 683 126 682 90 q 688 199 685 161 l 688 199 q 688 233 689 214 q 688 272 688 253 q 692 308 689 290 q 706 340 696 326 l 706 340 q 725 331 718 340 q 735 311 732 321 l 735 311 l 739 136 q 763 115 747 118 q 795 113 778 113 q 830 111 813 113 q 857 93 847 110 z m 596 101 l 596 101 q 590 79 593 90 q 572 65 586 68 l 572 65 q 549 78 560 68 q 535 100 538 89 l 535 100 q 534 125 538 114 q 517 142 531 136 l 517 142 q 481 139 499 143 q 461 115 464 135 l 461 115 q 460 89 464 101 q 440 71 456 76 l 440 71 q 415 78 421 65 q 404 104 408 92 l 404 104 q 428 212 417 157 q 439 325 440 267 l 439 325 q 458 340 446 336 q 481 349 469 344 l 481 349 q 505 347 492 347 q 531 344 518 346 q 553 338 543 343 q 568 319 564 332 l 568 319 q 572 209 568 265 q 596 101 576 153 z m 319 121 l 319 121 q 294 99 307 113 q 268 76 282 86 q 240 62 254 67 q 207 65 225 57 l 207 65 q 153 104 176 79 q 132 161 131 129 l 132 161 q 137 213 138 185 q 140 265 136 240 q 156 310 143 290 q 200 339 168 331 l 200 339 q 265 341 232 354 q 314 296 299 328 l 314 296 q 313 272 321 283 q 294 256 306 261 l 294 256 q 271 267 281 257 q 252 286 261 276 q 233 301 243 296 q 208 297 224 306 l 208 297 q 190 260 196 282 q 183 217 183 239 q 188 173 182 194 q 203 135 193 151 l 203 135 q 217 124 210 129 q 236 122 225 119 l 236 122 q 251 137 244 129 q 265 151 258 144 q 281 159 272 157 q 301 156 290 161 l 301 156 q 309 148 304 151 q 318 141 314 144 q 323 133 322 138 q 319 121 324 128 z m 2469 254 l 2469 254 q 2458 271 2468 265 q 2435 274 2449 276 l 2435 274 q 2416 243 2414 264 q 2418 206 2418 222 l 2418 206 q 2425 186 2417 194 q 2446 179 2433 178 l 2446 179 q 2467 188 2461 179 q 2473 207 2472 196 q 2472 231 2474 218 q 2469 254 2469 244 z m 1761 268 l 1761 268 q 1738 294 1757 288 q 1696 297 1718 300 l 1696 297 q 1678 280 1679 294 q 1674 253 1678 265 l 1674 253 q 1678 232 1672 239 q 1694 222 1685 225 q 1717 218 1704 218 q 1739 219 1729 218 l 1739 219 q 1754 226 1750 221 q 1760 240 1758 232 q 1760 255 1761 247 q 1761 268 1760 263 z m 1478 258 l 1478 258 q 1458 281 1472 271 q 1429 285 1444 290 l 1429 285 q 1412 247 1417 267 q 1407 205 1407 226 q 1410 162 1407 183 q 1414 119 1413 140 l 1414 119 q 1426 111 1418 111 q 1442 111 1433 111 l 1442 111 q 1472 139 1464 122 q 1482 175 1481 156 q 1481 216 1483 194 q 1478 258 1478 238 z m 533 254 l 533 254 q 520 285 533 272 q 486 296 507 299 l 486 296 q 473 262 469 282 q 474 225 476 242 l 474 225 q 508 203 481 199 l 508 203 q 528 224 528 210 q 533 254 528 239 z "},"Ç":{"ha":157,"x_min":null,"x_max":null,"o":""},"ç":{"ha":157,"x_min":null,"x_max":null,"o":""},"°":{"ha":157,"x_min":null,"x_max":null,"o":""},"•":{"ha":653,"x_min":128,"x_max":579,"o":"m 578 542 l 578 542 q 559 517 576 524 q 520 508 542 511 q 478 502 499 506 q 450 485 458 499 l 450 485 q 452 452 442 471 q 473 413 463 433 q 485 376 483 393 q 465 347 488 358 l 465 347 q 430 349 443 338 q 406 379 417 361 q 384 414 396 397 q 353 429 372 431 l 353 429 q 320 411 333 428 q 295 377 307 394 q 271 349 283 360 q 240 347 258 338 l 240 347 q 225 373 222 356 q 238 410 228 390 q 255 451 247 431 q 256 485 263 471 l 256 485 q 228 503 249 500 q 186 510 208 507 q 147 518 164 513 q 129 542 131 524 l 129 542 q 144 566 128 560 q 181 576 160 572 q 224 583 203 579 q 256 597 246 586 l 256 597 q 259 628 265 608 q 244 669 253 649 q 231 708 236 690 q 240 735 226 726 l 240 735 q 267 732 254 743 q 294 703 281 721 q 322 670 307 686 q 353 653 336 654 l 353 653 q 384 669 369 653 q 412 703 399 685 q 438 733 425 721 q 465 735 451 744 l 465 735 q 477 708 481 726 q 466 670 474 690 q 451 631 458 650 q 450 597 444 611 l 450 597 q 478 580 457 583 q 522 574 499 576 q 562 566 544 572 q 578 542 579 560 z "},"ß":{"ha":157,"x_min":null,"x_max":null,"o":""},"®":{"ha":690,"x_min":32,"x_max":596,"o":"m 596 343 l 596 343 q 581 216 596 263 q 531 147 567 169 l 531 147 q 482 128 510 135 q 424 120 454 122 q 365 118 394 118 q 314 118 336 118 l 314 118 q 262 118 292 118 q 201 120 232 118 q 142 128 169 122 q 94 146 114 133 l 94 146 q 47 210 63 165 q 32 343 32 256 l 32 343 l 32 811 q 49 943 32 899 q 99 1007 67 988 l 99 1007 q 146 1025 118 1019 q 203 1033 174 1031 q 263 1034 233 1035 q 314 1033 292 1033 l 314 1033 q 365 1034 336 1033 q 425 1033 394 1035 q 484 1025 456 1031 q 532 1007 513 1019 l 532 1007 q 580 943 564 988 q 596 811 596 899 l 596 811 l 596 343 z m 492 304 l 492 856 q 485 899 492 881 q 458 928 478 917 q 403 946 438 940 q 313 951 368 951 l 313 951 q 224 946 258 951 q 169 928 189 940 q 140 899 149 917 q 132 856 132 881 l 132 856 l 132 304 q 138 263 132 281 q 163 234 144 246 q 218 217 182 222 q 313 211 254 211 l 313 211 q 406 217 371 211 q 460 234 442 222 q 485 263 479 246 q 492 304 492 281 l 492 304 z m 428 708 l 428 708 q 424 651 428 674 q 408 606 421 629 l 408 606 q 392 581 401 592 q 368 563 382 569 l 368 563 l 421 338 q 415 319 425 322 q 396 317 406 317 l 396 317 q 387 317 390 317 q 378 317 383 318 l 378 317 q 361 319 368 317 q 351 332 354 321 l 351 332 l 301 547 l 264 547 l 264 335 q 258 320 264 324 q 242 317 251 317 l 242 317 l 226 317 q 207 318 217 314 q 197 335 197 322 l 197 335 l 197 828 q 203 844 197 840 q 219 849 208 849 l 219 849 l 306 849 q 356 843 332 849 q 400 814 381 838 l 400 814 q 414 794 408 803 q 423 774 419 785 q 427 747 426 763 q 428 708 428 732 z m 360 708 l 360 742 q 345 771 357 765 q 307 776 333 776 l 307 776 l 264 776 l 264 622 l 306 622 q 353 643 346 622 q 360 708 360 664 l 360 708 z "},"©":{"ha":700,"x_min":106,"x_max":606,"o":"m 606 236 l 606 236 q 592 124 606 165 q 547 63 579 82 l 547 63 q 505 46 529 51 q 453 38 481 40 q 401 37 426 36 q 356 38 375 38 l 356 38 q 310 38 336 38 q 256 39 283 38 q 203 46 228 40 q 161 61 178 51 l 161 61 q 119 118 133 79 q 106 236 106 157 l 106 236 l 106 801 q 121 918 106 879 q 165 975 136 957 l 165 975 q 208 991 183 986 q 258 998 232 996 q 310 1000 285 1000 q 356 1000 336 1000 l 356 1000 q 401 1000 375 1000 q 455 998 428 1000 q 507 991 482 996 q 550 975 532 986 l 550 975 q 592 919 578 958 q 606 801 606 879 l 606 801 l 606 236 z m 514 203 l 514 842 q 508 880 514 864 q 484 906 501 896 q 435 922 467 917 q 354 926 404 926 l 354 926 q 276 922 307 926 q 226 906 244 917 q 201 880 208 896 q 194 842 194 864 l 194 842 l 194 203 q 200 166 194 182 q 222 140 206 150 q 271 124 239 129 q 354 119 303 119 l 354 119 q 438 124 407 119 q 486 140 469 129 q 508 166 503 150 q 514 203 514 182 l 514 203 z m 483 356 l 483 356 q 448 258 483 296 q 351 221 413 221 l 351 221 q 258 255 297 221 q 218 350 218 289 l 218 350 l 218 678 q 258 775 218 740 q 351 810 297 810 l 351 810 q 448 772 410 810 q 482 674 486 733 l 482 674 q 469 658 481 658 q 447 657 457 657 l 447 657 q 426 658 439 657 q 414 674 414 658 l 414 674 q 406 708 413 693 l 406 708 q 386 733 399 722 q 350 743 374 743 l 350 743 q 306 729 322 744 q 289 699 289 714 l 289 699 l 289 333 q 306 303 289 318 q 350 289 322 289 l 350 289 q 383 299 372 289 q 401 324 394 310 l 401 324 q 411 358 408 339 l 411 358 q 422 374 411 371 q 440 375 432 376 l 440 375 l 450 374 q 472 373 460 374 q 483 357 483 372 l 483 357 l 483 356 z "},"™":{"ha":686,"x_min":57,"x_max":581,"o":"m 581 631 l 581 631 q 569 615 581 615 q 549 615 557 615 l 549 615 q 528 615 539 615 q 517 631 517 615 l 517 631 l 517 783 l 474 650 l 447 650 l 404 783 l 404 631 q 391 615 404 615 q 371 615 378 615 l 371 615 q 351 616 363 615 q 340 631 340 617 l 340 631 l 340 1008 q 349 1022 340 1019 q 365 1025 357 1025 l 365 1025 l 372 1025 l 379 1025 q 406 1014 399 1025 l 406 1014 l 460 876 l 515 1013 q 525 1022 518 1019 q 539 1025 532 1025 l 539 1025 l 549 1025 q 569 1025 557 1025 q 581 1010 581 1025 l 581 1010 l 581 631 z m 300 972 l 300 972 q 298 963 300 969 q 285 956 296 956 l 285 956 l 211 956 l 211 628 q 199 614 211 613 q 176 615 186 615 l 176 615 q 157 615 168 615 q 146 628 146 614 l 146 628 l 146 956 l 74 956 q 60 965 63 956 q 57 983 57 974 l 57 983 l 58 993 q 58 1013 58 1001 q 72 1024 58 1024 l 72 1024 l 286 1024 q 299 1013 300 1024 q 300 993 299 1001 l 300 993 q 301 983 300 988 q 300 972 303 978 z "},"±":{"ha":157,"x_min":null,"x_max":null,"o":""},"∂":{"ha":157,"x_min":null,"x_max":null,"o":""}," ":{"ha":157,"x_min":null,"x_max":null,"o":""},"—":{"ha":699,"x_min":32,"x_max":601,"o":"m 599 517 l 599 517 q 599 499 599 508 q 599 482 600 490 q 593 468 597 474 q 581 463 589 463 l 581 463 l 53 463 q 39 468 43 463 q 33 483 35 474 q 33 502 32 492 q 33 522 33 513 l 33 522 q 34 561 33 540 q 53 582 35 582 l 53 582 l 581 582 q 596 576 592 582 q 601 560 600 569 q 600 538 601 550 q 599 517 599 526 z "},"“":{"ha":619,"x_min":110,"x_max":528,"o":"m 526 779 l 526 779 q 524 771 528 774 q 513 767 519 768 q 498 766 506 765 q 483 767 490 767 l 483 767 q 453 765 468 765 q 432 779 438 765 l 432 779 l 347 1000 q 349 1013 343 1008 q 364 1021 354 1018 q 386 1024 374 1024 q 408 1025 399 1025 l 408 1025 q 458 1027 433 1028 q 486 1006 482 1026 l 486 1006 l 526 779 z m 293 779 l 293 779 q 290 771 294 774 q 279 767 286 768 q 265 766 272 765 q 250 767 257 767 l 250 767 q 219 765 235 765 q 199 779 204 765 l 199 779 l 114 1000 q 115 1013 110 1008 q 131 1021 121 1018 q 154 1024 142 1024 q 176 1025 167 1025 l 176 1025 q 224 1027 200 1028 q 253 1006 249 1026 l 253 1006 l 293 779 z "},"”":{"ha":613,"x_min":88,"x_max":513,"o":"m 508 1006 l 417 779 q 396 766 410 765 q 367 767 382 767 l 367 767 q 336 767 353 767 q 322 779 319 767 l 322 779 l 367 1000 q 377 1017 369 1011 q 395 1024 385 1022 q 419 1026 406 1026 q 444 1025 432 1025 l 444 1025 q 468 1025 456 1025 q 491 1024 481 1025 q 507 1018 501 1022 q 508 1006 513 1014 l 508 1006 z m 276 1006 l 183 779 q 163 766 176 765 q 133 767 149 767 l 133 767 q 103 767 119 767 q 89 779 88 767 l 89 779 l 133 1000 q 163 1025 139 1024 q 211 1025 186 1026 l 211 1025 q 233 1025 221 1025 q 256 1024 246 1025 q 273 1018 267 1022 q 276 1006 279 1014 l 276 1006 z "},"‘":{"ha":360,"x_min":100,"x_max":268,"o":"m 267 779 l 267 779 q 253 767 268 767 q 224 767 238 768 l 224 767 q 192 765 207 764 q 172 779 176 765 l 172 779 l 103 1000 q 106 1015 100 1010 q 122 1022 111 1019 q 144 1024 132 1024 q 167 1025 157 1025 l 167 1025 q 190 1027 178 1026 q 214 1026 203 1028 q 233 1021 225 1025 q 242 1006 240 1017 l 242 1006 l 267 779 z "},"’":{"ha":339,"x_min":74,"x_max":243,"o":"m 240 1014 l 171 786 q 152 771 167 772 q 121 769 138 769 l 121 769 q 90 767 107 768 q 75 778 74 765 l 75 778 l 99 994 q 107 1013 100 1007 q 124 1023 114 1019 q 147 1028 135 1026 q 172 1029 160 1029 l 172 1029 q 196 1030 183 1029 q 219 1030 208 1031 q 237 1026 231 1029 q 240 1014 243 1022 l 240 1014 z "},"‡":{"ha":157,"x_min":null,"x_max":null,"o":""},"Í":{"ha":157,"x_min":null,"x_max":null,"o":""},"Ó":{"ha":157,"x_min":null,"x_max":null,"o":""},"˙":{"ha":157,"x_min":null,"x_max":null,"o":""},"#":{"ha":625,"x_min":58,"x_max":569,"o":"m 568 435 l 568 435 q 569 420 568 428 q 569 406 569 413 q 567 394 569 399 q 557 389 564 389 l 557 389 l 435 389 l 390 40 q 372 28 389 26 q 340 29 356 29 l 340 29 q 324 28 333 29 q 308 28 315 28 q 297 31 301 28 q 293 40 292 33 l 293 40 l 336 389 l 251 389 l 207 40 q 188 27 204 25 q 156 29 172 29 l 156 29 q 125 28 142 29 q 110 40 108 26 l 110 40 q 125 160 118 100 l 125 160 q 139 271 132 211 q 151 382 146 331 l 151 382 q 141 389 153 388 q 114 390 129 390 l 114 390 q 74 389 97 390 l 74 389 q 61 406 58 390 q 64 435 64 421 l 64 435 q 62 465 64 449 q 74 483 60 482 l 74 483 q 119 482 100 482 l 119 482 q 151 483 136 482 q 165 486 165 483 l 165 486 q 173 541 171 515 q 178 582 175 567 l 178 582 q 163 586 179 585 q 126 588 146 588 l 126 588 q 74 586 103 588 l 74 586 q 62 602 60 586 q 64 632 64 618 l 64 632 q 62 663 64 646 q 74 679 60 679 l 74 679 l 190 679 l 233 1024 q 251 1035 236 1038 q 282 1033 267 1033 l 282 1033 q 299 1034 290 1033 q 316 1035 308 1035 q 328 1033 324 1035 q 332 1024 333 1031 l 332 1024 l 288 679 l 372 679 l 417 1024 q 435 1035 418 1038 q 467 1033 451 1033 l 467 1033 q 482 1034 474 1033 q 498 1035 490 1035 q 510 1033 506 1035 q 514 1024 515 1031 l 514 1024 l 471 679 l 557 679 q 567 674 564 679 q 569 663 569 669 q 569 647 569 656 q 568 632 568 639 l 568 632 q 569 617 568 625 q 569 603 569 610 q 567 591 569 596 q 557 586 564 586 l 557 586 l 460 586 l 447 483 l 557 483 q 567 478 564 483 q 569 467 569 474 q 569 451 569 460 q 568 435 568 442 z m 361 586 l 275 586 l 263 483 l 349 483 l 361 586 z "},"!":{"ha":260,"x_min":100,"x_max":199,"o":"m 197 294 l 197 294 q 181 282 197 281 q 149 283 164 283 l 149 283 q 117 281 133 283 q 100 294 100 279 l 100 294 l 100 1024 q 105 1033 100 1031 q 117 1036 110 1036 q 132 1035 124 1036 q 149 1033 140 1033 l 149 1033 q 165 1035 156 1033 q 181 1036 174 1036 q 192 1033 188 1036 q 197 1024 197 1031 l 197 1024 l 197 294 z m 199 42 l 199 42 q 182 29 199 28 q 150 31 165 31 l 150 31 q 117 29 135 31 q 100 42 100 28 l 100 42 l 100 132 q 117 147 100 147 q 150 146 135 146 l 150 146 q 166 147 157 146 q 182 147 175 147 q 194 142 189 146 q 199 132 199 139 l 199 132 l 199 42 z "},"\"":{"ha":558,"x_min":167,"x_max":468,"o":"m 467 1017 l 449 838 q 435 826 447 826 q 411 826 422 826 l 411 826 q 386 826 399 826 q 372 838 374 826 l 372 838 l 354 1013 q 360 1025 354 1021 q 374 1031 365 1029 q 392 1033 382 1033 q 411 1033 403 1033 l 411 1033 q 430 1034 419 1033 q 449 1034 440 1035 q 463 1029 457 1033 q 467 1017 468 1025 l 467 1017 z m 281 1017 l 261 838 q 248 826 260 826 q 224 826 236 826 l 224 826 q 200 826 213 826 q 186 838 188 826 l 186 838 l 168 1013 q 187 1031 167 1029 q 224 1033 207 1033 l 224 1033 q 244 1034 233 1033 q 263 1034 254 1035 q 276 1029 271 1033 q 281 1017 282 1025 l 281 1017 z "}}}
